<?xml version="1.0" encoding="UTF-8" standalone="no"?>
<svg
   xmlns:dc="http://purl.org/dc/elements/1.1/"
   xmlns:cc="http://creativecommons.org/ns#"
   xmlns:rdf="http://www.w3.org/1999/02/22-rdf-syntax-ns#"
   xmlns:svg="http://www.w3.org/2000/svg"
   xmlns="http://www.w3.org/2000/svg"
   id="svg8"
   version="1.1"
   viewBox="0 0 135.46666 135.46667"
   height="512"
   width="512">
  <defs
     id="defs2" />
  <metadata
     id="metadata5">
    <rdf:RDF>
      <cc:Work
         rdf:about="">
        <dc:format>image/svg+xml</dc:format>
        <dc:type
           rdf:resource="http://purl.org/dc/dcmitype/StillImage" />
        <dc:title></dc:title>
      </cc:Work>
    </rdf:RDF>
  </metadata>
  <g
     transform="translate(0,-161.53332)"
     id="layer1">
    <path
       id="path75"
       d="m 53.821693,289.28577 c -0.61812,-0.0668 -1.98681,-0.36304 -2.32607,-0.5034 -0.34681,-0.14348 -0.36925,-0.35307 -0.0385,-0.35929 0.21079,-0.004 0.60299,-0.28198 0.51787,-0.3671 -0.033,-0.033 -0.3576,-0.12939 -0.72138,-0.21425 -0.67932,-0.15848 -0.91281,-0.28268 -0.73637,-0.39173 0.1335,-0.0825 2.06032,0.32798 2.52286,0.53748 l 0.36472,0.16518 -0.29275,0.0402 c -0.17911,0.0246 -0.27014,0.0878 -0.23452,0.16291 0.032,0.0675 0.0866,0.20253 0.12121,0.30005 0.0398,0.11207 0.27166,0.22401 0.63006,0.30421 0.76742,0.17174 0.90411,0.40267 0.19282,0.32576 z m 34.281109,-0.65844 c -0.0791,-0.24931 0.1992,-0.61776 0.46667,-0.61776 0.26682,0 0.73235,0.24639 0.73325,0.38809 10e-4,0.16731 -0.54394,0.44555 -0.87273,0.44555 -0.17013,0 -0.28212,-0.0739 -0.32719,-0.21588 z m -1.19598,-0.55864 c 0,-0.19728 0.40543,-0.3206 0.55669,-0.16934 0.0891,0.0891 0.0799,0.14355 -0.0365,0.21716 -0.23338,0.14756 -0.52015,0.12118 -0.52015,-0.0478 z m 2.34055,-0.3783 c -0.0376,-0.0609 0.0109,-0.19845 0.10788,-0.30563 0.12498,-0.1381 0.15637,-0.28569 0.1078,-0.50684 -0.0846,-0.38514 0.12655,-0.82391 0.58015,-1.20559 0.32953,-0.27728 0.33088,-0.27746 0.55082,-0.0729 0.12127,0.1128 0.36116,0.22058 0.5331,0.2395 0.22718,0.025 0.32137,0.0958 0.34463,0.25906 0.0336,0.23564 0.15356,0.28513 0.98063,0.40441 0.99198,0.14308 0.89362,0.64723 -0.19168,0.98245 -0.78312,0.24188 -0.94462,0.2579 -0.99758,0.099 -0.0259,-0.0778 -0.23655,-0.0615 -0.67501,0.0521 -0.7391,0.19152 -1.24334,0.21197 -1.34074,0.0544 z m 3.85619,-0.10325 c -0.0864,-0.13987 0.12188,-0.38627 0.48567,-0.57439 0.37187,-0.1923 0.61194,-0.1903 0.61194,0.005 0,0.19765 -1.0051,0.71896 -1.09761,0.56927 z m -47.898099,-0.20671 c -0.41524,-0.21903 -0.59419,-0.41291 -0.3811,-0.41291 0.26703,0 1.03165,0.34668 0.99659,0.45185 -0.0607,0.18218 -0.21475,0.17244 -0.61549,-0.0389 z m 1.26976,-0.86921 c -1.22622,-0.43903 -1.35466,-0.50047 -1.35466,-0.64805 0,-0.1782 -0.0282,-0.17814 0.6462,-0.002 1.21098,0.31714 2.05767,0.60901 2.1743,0.74954 0.20081,0.24196 -0.67826,0.182 -1.46584,-0.1 z m 48.176889,-0.25813 c -0.0698,-0.26699 -0.10459,-0.27042 -0.60823,-0.06 -0.30205,0.1262 -0.41771,0.1351 -0.5077,0.0391 -0.0742,-0.0791 -0.0787,-0.13871 -0.0123,-0.16385 0.31378,-0.11891 0.78381,-0.47342 0.88949,-0.67089 0.0891,-0.16657 0.0898,-0.20709 0.002,-0.15303 -0.0654,0.0404 -0.45697,0.11316 -0.87009,0.16159 -0.41311,0.0484 -0.87948,0.12015 -1.03638,0.15935 -0.22457,0.0561 -0.29853,0.03 -0.34759,-0.12296 -0.058,-0.18069 -0.77373,-1.70252 -0.84756,-1.80206 -0.0182,-0.0246 -0.1983,0.034 -0.40012,0.13026 -0.48274,0.2302 -0.56828,0.2211 -0.56828,-0.0605 0,-0.1295 -0.0938,-0.29402 -0.20841,-0.3656 -0.51771,-0.32331 -0.0492,-1.08818 1.29145,-2.10828 0.48959,-0.37254 0.89167,-0.70749 0.89351,-0.74434 0.0144,-0.28915 -0.73877,-0.0948 -1.27865,0.32993 -0.39949,0.31427 -0.46795,0.18646 -0.19788,-0.36942 0.12469,-0.25665 0.21397,-0.46664 0.1984,-0.46664 -0.0156,0 -0.28878,0.0916 -0.60712,0.20344 -0.31835,0.11189 -0.87051,0.25041 -1.22703,0.30783 -0.71473,0.1151 -1.53701,0.45757 -2.22159,0.92525 -0.65446,0.44711 -1.9936,1.16374 -2.38372,1.27561 -0.2226,0.0639 -0.38346,0.06 -0.46918,-0.0111 -0.0943,-0.0783 -0.4127,0.029 -1.14995,0.38771 -0.73308,0.35662 -1.14958,0.49741 -1.48251,0.50115 -0.6013,0.007 -0.65176,-0.17137 -0.11689,-0.41257 0.23365,-0.10536 0.44945,-0.23142 0.47955,-0.28012 0.0999,-0.16164 -0.82357,0.04 -2.82624,0.61701 -1.08894,0.31376 -2.30057,0.66092 -2.69252,0.77147 -0.39194,0.11055 -0.94136,0.31691 -1.22094,0.45859 -0.44575,0.22587 -0.64023,0.2569 -1.57989,0.25206 -1.18855,-0.006 -2.62744,-0.20611 -2.81218,-0.39085 -0.19793,-0.19792 0.16765,-0.49327 1.04596,-0.84502 0.92258,-0.36947 2.36289,-0.74575 5.22757,-1.36571 3.02477,-0.65459 4.47202,-1.00734 4.61419,-1.1246 0.0699,-0.0577 1.43979,-0.63099 3.04414,-1.27403 2.83039,-1.13444 3.86241,-1.61733 4.12012,-1.92784 0.29257,-0.35253 -0.22721,-0.2348 -1.39466,0.31586 -0.67426,0.31804 -1.63349,0.69694 -2.13163,0.842 -0.99491,0.2897 -2.89025,0.60707 -3.04699,0.5102 -0.29126,-0.18 0.0557,-0.35845 2.21307,-1.13813 2.40057,-0.8676 2.74156,-1.00503 4.02166,-1.62098 1.24681,-0.59993 2.52359,-1.39796 2.52359,-1.57735 0,-0.19555 -0.3921,-0.0642 -1.3453,0.45067 -1.65196,0.89229 -4.10763,1.95274 -4.25175,1.83606 -0.0866,-0.0701 -0.46553,0.0304 -1.2058,0.31984 -0.59373,0.23213 -1.27546,0.45339 -1.51495,0.49169 -0.40917,0.0654 -0.43522,0.0547 -0.4318,-0.17815 0.004,-0.25299 0.0282,-0.27032 3.22672,-2.28 0.42985,-0.27009 1.30867,-0.81428 1.95295,-1.20932 3.48197,-2.135 7.7034,-5.05156 9.3865,-6.48507 1.90264,-1.6205 3.642558,-3.4334 5.083298,-5.29649 0.53931,-0.69742 1.20307,-1.43265 1.47501,-1.63385 1.02846,-0.76093 2.18741,-2.17037 3.18208,-3.86984 2.17666,-3.71901 3.68055,-9.27204 5.1226,-18.91485 0.50735,-3.39258 0.962,-6.11444 1.04331,-6.246 0.0376,-0.0608 0.13587,-0.11051 0.21845,-0.11051 0.0826,0 0.15016,-0.0958 0.15016,-0.21298 0,-0.14503 -0.0582,-0.20321 -0.18236,-0.18236 -0.13996,0.0235 -0.18236,-0.0421 -0.18236,-0.282 0,-0.23992 0.0424,-0.30549 0.18236,-0.28199 0.14893,0.025 0.18236,-0.0475 0.18236,-0.39534 0,-0.34787 -0.0334,-0.42034 -0.18236,-0.39534 -0.14477,0.0243 -0.18236,-0.0446 -0.18236,-0.33409 0,-0.30088 0.0347,-0.35873 0.19802,-0.33051 0.18573,0.0321 0.19366,-0.0181 0.12773,-0.80867 -0.10019,-1.20146 -0.36806,-2.42114 -0.58514,-2.66431 -0.22576,-0.25291 -0.46324,-2.2114 -0.29334,-2.41932 0.07,-0.0857 0.0351,-0.45764 -0.10759,-1.14626 -0.11616,-0.5607 -0.23921,-1.23046 -0.27345,-1.48837 -0.10035,-0.75593 -0.55242,-2.70372 -0.88564,-3.81584 -1.39617,-4.65974 -2.97745,-8.05874 -5.49654,-11.81493 -1.71246,-2.55345 -2.79091,-3.94148 -4.53395,-5.83549 -1.307018,-1.42021 -3.740128,-3.69373 -4.968848,-4.64292 -0.36682,-0.28338 -0.92953,-0.71849 -1.25046,-0.96693 -0.32093,-0.24843 -1.20708,-0.87209 -1.96923,-1.38591 -5.60161,-3.77644 -11.58864,-6.2415 -18.04853,-7.4312 -3.4752,-0.64001 -4.48459,-0.72963 -8.2322,-0.73091 -5.516495,-0.002 -6.177645,0.096 -11.306259,1.67394 -4.99715,1.53747 -7.56586,2.45922 -9.27426,3.32794 -2.39642,1.21859 -4.37145,2.46555 -6.95562,4.39153 -3.43,2.55638 -7.1201,6.33172 -9.4198,9.6374 -4.5833,6.58823 -7.48453,14.07233 -8.5167,21.96993 -0.45064,3.44815 -0.48828,8.69333 -0.0811,11.30626 0.68276,4.38162 2.1835,9.37117 3.98048,13.23405 0.67109,1.4426 1.03749,2.35292 1.03749,2.57765 0,0.11241 0.13344,0.32903 0.29654,0.48139 0.1631,0.15236 0.39007,0.4877 0.50438,0.74519 0.11431,0.2575 0.53786,0.96055 0.94121,1.56234 0.40336,0.60178 0.83488,1.29549 0.95893,1.54157 0.12406,0.24608 0.34649,0.55088 0.4943,0.67733 0.14781,0.12645 0.35188,0.41748 0.45348,0.64674 0.50611,1.14195 4.84485,5.88158 7.05824,7.71039 0.18626,0.1539 0.33866,0.36944 0.33866,0.47897 0,0.10953 0.0414,0.19915 0.0921,0.19915 0.0507,0 0.62634,0.48064 1.2793,1.0681 0.65296,0.58746 1.34639,1.18851 1.54097,1.33567 0.21484,0.16251 0.32387,0.31595 0.27762,0.39077 -0.12374,0.20023 -0.21201,0.15587 -1.11167,-0.55873 -0.47219,-0.37506 -1.07437,-0.80568 -1.33817,-0.95693 -0.89911,-0.51553 -1.37708,-0.90556 -1.75379,-1.43113 -0.7784,-1.08601 -1.20933,-1.5157 -1.498,-1.49371 -0.20423,0.0156 -0.46884,-0.15665 -1.06823,-0.69523 -0.43821,-0.39375 -0.79674,-0.74988 -0.79674,-0.79139 0,-0.0415 -0.0692,-0.10204 -0.15377,-0.13449 -0.13172,-0.0505 -0.12969,10e-4 0.0141,0.36064 0.20816,0.52024 3.44003,3.7971 3.95871,4.01382 0.19202,0.0802 0.34912,0.21266 0.34912,0.29429 0,0.14471 0.24529,0.3741 2.29251,2.14387 0.54447,0.47068 1.02991,0.93869 1.07875,1.04003 0.0488,0.10133 0.86946,0.61876 1.82359,1.14985 0.95413,0.53108 2.15682,1.20983 2.67263,1.50831 0.51582,0.29849 1.18399,0.67817 1.48482,0.84374 0.3568,0.19637 0.54701,0.36866 0.54708,0.49554 8e-5,0.15487 0.0571,0.1836 0.28006,0.14099 0.34547,-0.066 0.55368,0.007 0.55368,0.19301 0,0.19391 0.3373,0.35852 0.59602,0.29087 0.13164,-0.0344 0.28721,0.0214 0.40761,0.14613 0.21666,0.22453 0.77681,0.44126 1.1405,0.44126 0.15802,0 0.28795,0.10149 0.38884,0.30372 0.14155,0.28375 0.13744,0.30738 -0.0627,0.35971 -0.32677,0.0855 -1.2039,-0.13432 -1.86816,-0.46808 -0.32791,-0.16476 -0.66568,-0.29956 -0.75058,-0.29956 -0.33314,0 -0.68521,-0.2438 -0.68521,-0.47449 0,-0.21466 -0.17562,-0.35915 -0.43649,-0.35915 -0.0588,0 -0.0804,0.0688 -0.0481,0.15298 0.0971,0.25306 -0.14216,0.30158 -0.43708,0.0886 -0.15216,-0.10986 -0.48768,-0.26121 -0.74558,-0.33632 -0.76345,-0.22234 -1.04205,-0.40371 -1.04205,-0.67835 0,-0.27332 -0.1853,-0.38698 -0.4977,-0.30528 -0.14466,0.0378 -0.27024,-0.0377 -0.42572,-0.25607 -0.15276,-0.21451 -0.65328,-0.52077 -1.62846,-0.9964 -0.77436,-0.37769 -1.40792,-0.73049 -1.40792,-0.784 0,-0.12841 -1.60782,-1.05339 -1.83103,-1.05339 -0.0954,0 -0.33584,-0.14257 -0.53431,-0.31684 -0.19846,-0.17425 -0.5422,-0.38939 -0.76386,-0.47808 -0.40979,-0.16397 -0.84549,-0.63259 -0.97806,-1.05198 -0.0951,-0.30094 -1.83274,-1.92929 -3.03079,-2.84023 -0.51582,-0.39219 -1.52876,-1.33856 -2.25098,-2.10303 -0.72223,-0.76447 -1.61279,-1.6244 -1.97903,-1.91097 -0.64947,-0.50819 -0.6596,-0.51204 -0.41111,-0.15631 0.56636,0.81075 1.39278,1.7795 2.4669,2.89173 0.87859,0.90977 1.17885,1.16007 1.34058,1.11751 0.2941,-0.0774 0.78658,0.35037 0.82697,0.71826 0.0365,0.33278 0.51216,0.78327 0.84031,0.79591 0.11463,0.004 0.41357,0.19352 0.66431,0.42023 0.40056,0.36217 0.4386,0.43307 0.31334,0.584 -0.12309,0.14832 -0.1145,0.18752 0.0629,0.2869 0.11301,0.0633 0.34715,0.25793 0.52031,0.43249 0.17316,0.17458 0.56102,0.51891 0.86191,0.7652 0.30089,0.24629 0.54708,0.4954 0.54708,0.55359 0,0.15865 -0.49319,0.005 -0.92333,-0.28685 -0.20653,-0.14035 -0.48373,-0.25517 -0.61599,-0.25517 -0.64841,0 -2.17846,-1.2406 -2.54802,-2.06598 -0.13747,-0.30703 -0.24976,-0.43242 -0.35209,-0.39315 -0.17329,0.0665 -0.93911,-0.58484 -1.03209,-0.8778 -0.034,-0.10702 -0.29311,-0.33693 -0.57588,-0.51092 l -0.51413,-0.31635 -0.23864,0.23247 -0.23864,0.23245 0.62686,0.71467 c 0.43734,0.49859 0.61758,0.78553 0.59615,0.94903 -0.0411,0.31374 1.34375,1.61876 1.7178,1.61876 0.18813,0 0.28149,0.081 0.36306,0.31501 0.11038,0.31664 0.97339,1.0569 1.6194,1.38909 0.1833,0.0943 0.4585,0.33555 0.61155,0.53619 0.15304,0.20066 0.34536,0.36484 0.42738,0.36484 0.25628,0 0.76399,0.31082 0.76399,0.46771 0,0.0824 0.27526,0.33668 0.61169,0.56514 0.33643,0.22847 0.63614,0.50889 0.66602,0.62317 0.0299,0.11429 0.31423,0.37404 0.63188,0.57724 0.31765,0.20319 0.60607,0.41561 0.64094,0.47203 0.0349,0.0564 0.24965,0.15273 0.4773,0.21403 0.30818,0.083 0.48007,0.21627 0.67293,0.52179 0.14247,0.22569 0.25904,0.44085 0.25904,0.47814 0,0.136 -0.7075,-0.0521 -1.30994,-0.34823 -0.86347,-0.42448 -2.3232,-1.26471 -2.73282,-1.57306 -0.24372,-0.18346 -0.37582,-0.2262 -0.45484,-0.14718 -0.079,0.079 0.0207,0.19375 0.34347,0.39501 0.25016,0.15601 0.69225,0.49997 0.9824,0.76436 1.78085,1.62273 2.87555,2.40756 3.35901,2.4082 0.25293,0 1.16738,0.8167 1.16738,1.04218 0,0.21708 -0.49487,0.0389 -2.07914,-0.74869 -1.39163,-0.69179 -2.29747,-1.31094 -2.29747,-1.57033 0,-0.15636 -0.2574,-0.3325 -1.29313,-0.88491 -0.51063,-0.27235 -1.14368,-0.68632 -1.40677,-0.91996 -0.2631,-0.23363 -0.75971,-0.61456 -1.10359,-0.84651 -0.34388,-0.23195 -0.95348,-0.72572 -1.35467,-1.09725 -0.40118,-0.37154 -0.917,-0.77234 -1.14625,-0.89065 -0.42861,-0.22121 -1.09569,-0.87377 -1.96783,-1.925 -0.27341,-0.32955 -0.55386,-0.59918 -0.62322,-0.59918 -0.34165,0 -2.65016,-3.01458 -2.81289,-3.67323 -0.0389,-0.15761 -0.11785,-0.28657 -0.17535,-0.28657 -0.0575,0 -0.3208,-0.19929 -0.5851,-0.44287 l -0.48055,-0.44287 0.0743,0.33867 c 0.0409,0.18626 0.0449,0.33866 0.009,0.33866 -0.036,0 -0.38913,-0.32824 -0.78479,-0.72943 -0.39565,-0.40119 -0.76645,-0.72944 -0.82399,-0.72944 -0.0624,0 -0.0434,0.17345 0.0471,0.42992 0.50095,1.41983 -0.36003,0.69854 -1.782,-1.49288 -1.08254,-1.6683 -1.19247,-1.85516 -1.19247,-2.02689 0,-0.16624 -0.76221,-1.26633 -1.31956,-1.90451 -0.30459,-0.34877 -0.86875,-1.45529 -0.86875,-1.70395 0,-0.18119 -0.52859,-0.81208 -0.62861,-0.75026 -0.0517,0.0319 -0.14977,-0.0312 -0.21793,-0.14034 -0.0725,-0.11608 -0.20045,-0.17842 -0.30832,-0.15021 -0.20107,0.0526 -0.63071,-0.5364 -0.91161,-1.24969 -0.34704,-0.88125 0.18464,-0.49551 0.73783,0.5353 0.15759,0.29366 0.32171,0.53356 0.36472,0.53311 0.043,-4.2e-4 0.13487,-0.12295 0.20415,-0.27221 0.1335,-0.2876 0.0829,-0.38867 -0.90103,-1.80122 -0.17588,-0.25249 -0.36591,-0.63036 -0.42228,-0.83972 -0.0564,-0.20936 -0.21835,-0.48138 -0.35994,-0.60449 -0.66801,-0.58083 -1.45381,-3.05721 -1.41709,-4.46582 0.0128,-0.49208 -0.0205,-0.65205 -0.14573,-0.70012 -0.0893,-0.0343 -0.16236,-0.13576 -0.16236,-0.22554 0,-0.0898 -0.0729,-0.2745 -0.162,-0.41048 -0.0891,-0.13598 -0.29951,-0.75566 -0.46758,-1.37706 -0.16807,-0.62139 -0.49375,-1.73941 -0.72373,-2.48448 -0.22998,-0.74506 -0.41815,-1.45428 -0.41816,-1.57602 -10e-6,-0.12175 -0.0686,-0.41581 -0.15247,-0.65346 -0.46036,-1.3048 -0.89391,-5.39003 -0.59184,-5.57672 0.13576,-0.0839 0.16177,-0.54362 0.0352,-0.62185 -0.20221,-0.12497 -0.23266,-6.20247 -0.04,-7.98425 0.0651,-0.60179 0.14993,-1.38954 0.18857,-1.75057 0.0571,-0.53318 0.0429,-0.65055 -0.0754,-0.62523 -0.11501,0.0246 -0.13808,-0.10029 -0.1097,-0.59405 0.0293,-0.50986 0.011,-0.60119 -0.099,-0.49497 -0.23689,0.22868 -0.40586,0.14869 -0.40586,-0.19212 0,-0.23157 0.057,-0.33728 0.20246,-0.37531 0.12483,-0.0327 0.2277,-0.17873 0.26829,-0.38102 0.0362,-0.18044 0.0877,-0.42185 0.1145,-0.53648 0.0373,-0.15954 0.013,-0.14733 -0.10354,0.0521 -0.0837,0.14328 -0.19865,0.26051 -0.25542,0.26051 -0.16164,0 -0.53891,0.53146 -0.53891,0.75916 0,0.31429 -0.2375495,0.46496 -0.4677195,0.29665 -0.1827,-0.13359 -0.1833,-0.18976 -0.0155,-1.4417 0.096,-0.71648 0.32609,-1.86061 0.5112795,-2.54251 0.31589,-1.1632 0.35279,-1.23981 0.59721,-1.23981 0.30314,0 0.30009,-0.11997 0.0458,1.79999 -0.17911,1.35249 -0.17876,1.38641 0.0157,1.52928 0.17381,0.12766 0.20787,0.12406 0.26975,-0.0285 0.039,-0.096 0.0741,-0.3527 0.0781,-0.57036 0.005,-0.28211 0.0821,-0.46507 0.26784,-0.63718 0.29904,-0.27714 0.33911,-0.65811 0.0885,-0.84137 -0.15544,-0.11366 -0.15795,-0.18332 -0.026,-0.72261 0.16278,-0.66553 0.32733,-0.76527 0.40716,-0.24678 0.0724,0.4701 0.1476,0.29722 0.36365,-0.83586 0.11471,-0.60156 0.27862,-1.10815 0.43137,-1.33324 0.28566,-0.42095 0.30828,-0.56219 0.0901,-0.56219 -0.086,0 -0.15631,-0.0517 -0.15631,-0.11488 0,-0.13473 0.52564,-1.71963 0.78269,-2.35999 0.18736,-0.46674 0.25053,-0.51422 0.43658,-0.32818 0.1227,0.12271 0.16077,0.0427 0.29381,-0.617 0.0533,-0.26432 0.0269,-0.3773 -0.11162,-0.47863 -0.17003,-0.12434 -0.16598,-0.1535 0.0648,-0.46561 0.20664,-0.27949 0.22581,-0.36555 0.1194,-0.53594 -0.17819,-0.28534 -0.15834,-0.45756 0.0773,-0.67085 0.11226,-0.10159 0.27789,-0.40686 0.36808,-0.67837 0.23542,-0.70881 0.74057,-1.47127 0.92728,-1.39962 0.21132,0.0811 0.4529,-0.36714 0.2616,-0.48537 -0.18133,-0.11207 0.12677,-1.11721 0.46835,-1.52792 0.36428,-0.438 0.49843,-0.74407 0.42607,-0.97207 -0.0747,-0.23528 0.11754,-0.58408 1.01303,-1.83827 0.3353,-0.46961 0.68073,-1.02398 0.76761,-1.23194 0.0869,-0.20795 0.29397,-0.52711 0.46017,-0.70924 0.1662,-0.18213 0.57238,-0.62684 0.90263,-0.98826 0.51775,-0.56662 0.58374,-0.68384 0.47921,-0.85123 -0.0984,-0.15753 -0.0814,-0.24482 0.0903,-0.46309 0.24733,-0.31443 0.37536,-0.34047 0.42582,-0.0866 0.0309,0.15533 0.0814,0.13751 0.34105,-0.12027 0.30343,-0.30125 0.30377,-0.303 0.0756,-0.38741 -0.32299,-0.11948 -0.28381,-0.31795 0.11012,-0.55789 0.48342,-0.29445 0.47276,-0.29267 0.519,-0.0865 0.057,0.25439 0.46948,-0.18602 2.75142,-2.93803 3.10241,-3.7415 3.02853,-3.64165 2.85208,-3.85426 -0.17199,-0.20724 -0.0638,-0.45687 0.40694,-0.93918 0.53686,-0.55002 0.64554,-0.63118 0.95012,-0.70952 0.2418,-0.0622 2.76435,-2.24036 3.33107,-2.8763 0.14328,-0.16079 0.42463,-0.40092 0.62523,-0.53362 0.20059,-0.13271 0.65236,-0.50277 1.00392,-0.82236 0.35157,-0.31959 0.83448,-0.74519 1.07315,-0.94579 0.23866,-0.20059 0.45929,-0.38816 0.49029,-0.41682 0.031,-0.0287 0.0235,0.12375 -0.0166,0.33867 -0.0903,0.48314 0.0436,0.50684 0.62633,0.11088 l 0.41189,-0.27989 -0.27533,-0.0736 c -0.44391,-0.11873 -0.5127,-0.18974 -0.39558,-0.40858 0.20962,-0.39167 -0.10523,-0.30798 -1.1135,0.29601 -0.6283,0.37637 -1.07502,0.7185 -1.15836,0.88715 -0.0746,0.15098 -0.37941,0.44235 -0.67734,0.64748 -0.94042,0.64753 -2.1952,1.39972 -2.33495,1.39972 -0.24419,0 -0.14031,-0.3056 0.25117,-0.73892 l 0.38568,-0.42691 -0.23767,-0.17927 -0.23767,-0.17928 0.47734,-0.39114 c 0.52711,-0.43193 0.84134,-0.87591 0.53737,-0.75927 -0.10838,0.0416 -0.1967,0.003 -0.23791,-0.10463 -0.10021,-0.26116 0.33698,-0.55514 0.82556,-0.55514 0.33691,0 0.40434,-0.0315 0.35317,-0.16483 -0.0348,-0.0907 -0.0632,-0.21435 -0.0632,-0.27486 0,-0.0722 -0.19955,-0.0866 -0.58112,-0.0417 -0.51412,0.0604 -0.57715,0.0476 -0.54661,-0.11097 0.019,-0.0986 0.24533,-0.34043 0.50298,-0.5374 0.44645,-0.34132 0.47001,-0.34766 0.50174,-0.1352 0.0183,0.12262 0.0835,0.22294 0.14482,0.22294 0.0613,0 0.1662,0.0748 0.23302,0.16616 0.11028,0.15081 0.15708,0.1513 0.50647,0.005 0.21172,-0.0885 0.38496,-0.20631 0.38496,-0.26187 0,-0.0556 0.16659,-0.20398 0.3702,-0.32982 0.53493,-0.33061 0.35246,-0.38613 -0.20169,-0.0614 -0.49947,0.29271 -0.68954,0.33803 -0.68954,0.16444 0,-0.16065 1.93463,-2.03558 2.64973,-2.56796 0.78437,-0.58395 3.04495,-1.93757 4.33201,-2.59397 0.79486,-0.40537 0.93861,-0.51179 0.72944,-0.53996 -0.77925,-0.10494 -0.70274,-0.18409 0.89929,-0.93026 2.87053,-1.33698 3.36382,-1.5168 4.20676,-1.53347 0.77196,-0.0153 1.53561,-0.2704 1.41132,-0.47151 -0.074,-0.11969 0.11677,-0.25313 0.66845,-0.46764 0.42887,-0.16676 0.47414,-0.16756 0.589,-0.0105 0.11269,0.15412 0.25457,0.12538 1.50459,-0.30477 0.7591,-0.26121 1.46134,-0.47492 1.56054,-0.47492 0.0992,0 0.24471,-0.0957 0.32334,-0.21263 0.15978,-0.23762 1.29677,-0.5521 1.52809,-0.42265 0.22368,0.12518 2.54779,-0.36619 2.69696,-0.57019 0.23809,-0.3256 1.68038,-0.47763 1.90971,-0.2013 0.19532,0.23534 3.542974,0.23225 3.542974,-0.003 0,-0.0878 0.0692,-0.18613 0.15373,-0.21857 0.13543,-0.052 0.13536,-0.0945 -6.2e-4,-0.35746 -0.14437,-0.27918 -0.13997,-0.30615 0.0682,-0.41757 0.33589,-0.17976 4.165975,-0.25183 5.822565,-0.10956 2.70616,0.23241 3.50954,0.4 3.23477,0.67477 -0.0597,0.0597 -0.1086,0.14614 -0.1086,0.19199 0,0.12536 0.35833,0.10017 0.49318,-0.0347 0.0649,-0.0649 0.19937,-0.0868 0.29878,-0.0487 0.13775,0.0529 0.15181,0.0983 0.0591,0.19098 -0.18045,0.18045 -0.14797,0.28836 0.0868,0.28836 0.13485,0 0.20841,-0.0695 0.20841,-0.19681 0,-0.14243 0.10079,-0.21572 0.36472,-0.26524 0.20992,-0.0394 0.36472,-0.13015 0.36472,-0.21386 0,-0.23772 0.16302,-0.26861 0.50836,-0.0963 0.44054,0.21977 3.19277,0.74956 7.04651,1.35642 1.17446,0.18495 1.42572,0.25128 2.69239,0.71078 0.76639,0.27802 1.12143,0.35664 1.40677,0.31152 0.27296,-0.0432 0.58942,0.018 1.1111,0.21467 0.40119,0.15127 1.10457,0.4086 1.56307,0.57185 0.45851,0.16325 1.51336,0.58256 2.34413,0.93181 0.83076,0.34924 1.54783,0.63498 1.59347,0.63498 0.0456,0 0.39756,0.14723 0.78203,0.32717 1.38937,0.65024 1.63977,0.75529 1.81417,0.76109 0.0975,0.003 0.23819,0.0825 0.31262,0.17605 0.1299,0.16333 1.07069,0.35916 0.97403,0.20275 -0.0259,-0.0419 -0.23693,-0.1618 -0.46895,-0.26643 -0.23202,-0.10462 -0.42186,-0.23147 -0.42186,-0.28188 0,-0.24304 0.36381,-0.16883 1.00923,0.20587 1.29079,0.74937 1.597,0.87989 1.7556,0.74826 0.11124,-0.0923 0.25696,-0.0573 0.64334,0.15443 0.67025,0.36735 1.48947,0.97228 1.48947,1.09986 0,0.17837 -0.19556,0.11563 -0.97769,-0.31363 -0.41771,-0.22925 -0.82452,-0.41682 -0.90403,-0.41682 -0.21067,0 0.84452,0.92082 1.15229,1.00557 0.49014,0.13496 1.19821,0.4829 1.50702,0.74054 0.18265,0.15239 0.32445,0.21013 0.347348,0.14145 0.0614,-0.18409 0.22655,-0.13924 0.79374,0.21552 0.95398,0.59669 1.42916,1.02551 1.36397,1.23091 -0.0446,0.14065 0.15659,0.37279 0.80377,0.92726 0.47483,0.4068 0.92471,0.73985 0.99973,0.74011 0.16515,6.3e-4 0.0573,-0.20466 -0.20818,-0.39619 -0.20432,-0.14741 -0.25191,-0.33276 -0.0854,-0.33276 0.0568,0 0.31832,0.16413 0.5811,0.36472 0.2628,0.2006 0.51964,0.36472 0.57077,0.36472 0.16838,0 -0.0335,-0.35968 -0.36067,-0.64271 -0.23675,-0.2048 -0.29102,-0.30924 -0.20609,-0.39664 0.0857,-0.0882 0.19933,-0.0479 0.44287,0.157 0.18017,0.1516 0.32759,0.33642 0.32759,0.4107 0,0.21639 0.49196,0.48291 0.76491,0.41441 0.19806,-0.0497 0.33247,0.0353 0.70385,0.44534 0.25247,0.27873 0.93423,0.82509 1.51503,1.21413 1.17218,0.78518 1.77843,1.32531 2.2033,1.96297 0.37443,0.56198 0.36455,0.54463 0.78428,1.37762 0.32769,0.65034 0.40679,0.73513 0.79183,0.84882 0.43219,0.12761 2.15717,1.48235 2.27352,1.78553 0.0327,0.0853 -0.003,0.19363 -0.0793,0.24079 -0.1594,0.0985 -0.0418,0.28715 0.43459,0.69701 0.15076,0.12971 0.35647,0.41223 0.45711,0.62782 0.31469,0.67404 1.01144,1.67308 1.23705,1.77375 0.11879,0.053 0.33412,0.3265 0.47851,0.60776 0.24032,0.4681 0.29074,0.50869 0.59548,0.47944 0.3768,-0.0362 0.51798,0.15918 0.75929,1.05063 0.0741,0.27372 0.17095,0.52005 0.21523,0.54742 0.14791,0.0914 0.39951,-0.0704 0.34211,-0.22006 -0.0344,-0.0897 0.009,-0.14768 0.11078,-0.14768 0.16021,0 0.21105,0.11193 0.17599,0.38746 -0.009,0.0698 0.0736,0.30428 0.18322,0.52102 0.15251,0.30144 0.1726,0.43585 0.0854,0.57176 -0.0899,0.14023 -0.0654,0.22933 0.11632,0.42276 0.18023,0.19184 0.20283,0.2725 0.10407,0.37126 -0.17233,0.17233 0.14131,0.74585 0.6682,1.22187 0.47112,0.42563 0.70478,0.47574 0.46137,0.099 -0.0926,-0.14328 -0.24119,-0.3734 -0.33026,-0.51138 -0.22091,-0.34214 -0.0222,-0.44637 0.34503,-0.18102 0.55269,0.39931 1.14019,1.11436 1.32145,1.60831 0.10073,0.2745 0.2892,0.62619 0.41881,0.78154 0.12961,0.15534 0.31448,0.43617 0.41082,0.62404 0.0963,0.18788 0.31867,0.46924 0.49407,0.62524 0.17538,0.15599 0.38758,0.41617 0.47152,0.57817 0.14212,0.27425 0.13815,0.29833 -0.0576,0.34952 -0.20856,0.0545 -0.20831,0.0601 0.0314,0.69697 0.13291,0.3531 0.29528,0.89209 0.36084,1.19775 0.0655,0.30565 0.20787,0.6332 0.31625,0.72786 0.10839,0.0947 0.29776,0.44961 0.4208,0.78876 0.24042,0.66269 0.76936,1.41537 0.99461,1.41537 0.0761,0 0.25969,0.14427 0.40807,0.32061 0.28858,0.34297 0.37277,0.98235 0.13958,1.06009 -0.0978,0.0326 -0.0667,0.2488 0.12467,0.86837 0.14018,0.45374 0.26607,1.07486 0.27974,1.38026 0.0298,0.66461 0.41509,1.47161 0.79174,1.65816 0.28258,0.13995 0.48451,0.8438 0.27859,0.97107 -0.0596,0.0368 -0.12877,0.38573 -0.15379,0.77538 -0.0403,0.62694 10e-4,0.83555 0.35844,1.81305 0.72903,1.99355 1.0927,4.01616 0.86828,4.82896 -0.0852,0.30854 -0.0751,0.38856 0.0551,0.43852 0.11467,0.044 0.14405,0.15542 0.10496,0.39794 -0.0978,0.60635 0.15957,1.97974 0.41971,2.23987 0.15045,0.15046 0.23315,0.35949 0.23315,0.58935 0,0.45904 0.0898,0.68585 0.27166,0.68585 0.0995,0 0.14516,0.12912 0.14516,0.41067 0,0.45988 -0.14264,0.62618 -0.29839,0.34788 -0.0565,-0.10102 -0.12933,-0.15715 -0.16176,-0.12473 -0.10566,0.10568 0.15353,2.42793 0.3235,2.89834 0.24108,0.66719 0.12415,4.61413 -0.21023,7.09677 -0.16483,1.22377 -0.21327,1.88776 -0.1473,2.01868 0.11975,0.23761 0.0244,0.77393 -0.17722,0.99671 -0.0894,0.0987 -0.19476,0.61696 -0.26631,1.3094 -0.13368,1.29377 -0.45281,3.28679 -0.69079,4.31401 -0.70685,3.05122 -2.06576,6.78161 -3.10795,8.53179 -0.14596,0.24512 -0.26539,0.52242 -0.26539,0.61623 0,0.0938 -0.25113,0.64502 -0.55805,1.22492 -0.74045,1.39901 -0.70467,1.32786 -1.21419,2.41467 -0.24498,0.52255 -0.41157,1.00488 -0.37019,1.07183 0.0421,0.068 -0.13338,0.45645 -0.3977,0.88053 -0.26012,0.41734 -0.56264,0.96665 -0.67229,1.22068 -0.10963,0.25403 -0.29986,0.5518 -0.42271,0.6617 -0.1716,0.15351 -0.2093,0.27471 -0.16272,0.52302 0.10321,0.55019 -0.61928,1.76644 -2.29167,3.85777 -0.54804,0.68531 -0.99643,1.28759 -0.99643,1.33837 0,0.0508 0.0938,0.11685 0.20841,0.14683 0.11462,0.03 0.20841,0.1144 0.20841,0.1876 0,0.14491 -2.16619,2.06792 -2.63053,2.33523 -0.17489,0.10069 -0.28615,0.25374 -0.28656,0.39421 -0.001,0.2225 0.008,0.22437 0.29441,0.0603 0.28959,-0.16621 0.64278,-0.13176 0.64278,0.0627 0,0.15122 -0.88694,0.76763 -1.92779,1.33979 -1.71622,0.94342 -2.29011,1.33509 -2.32759,1.5885 -0.0371,0.25069 -0.0594,0.24932 0.68635,0.0424 0.14371,-0.0399 0.23447,-0.0193 0.23447,0.0533 0,0.0728 0.096,0.0943 0.24914,0.0558 0.13703,-0.0344 0.27732,-0.017 0.31175,0.0388 0.0842,0.13618 -0.72079,0.85343 -0.95777,0.85343 -0.10333,0 -0.34676,0.11723 -0.54097,0.26051 -0.41493,0.30613 -0.57863,0.32529 -0.71391,0.0836 -0.0877,-0.15678 -0.16263,-0.12787 -0.65646,0.25333 -0.30658,0.23667 -0.6981,0.58267 -0.87004,0.76889 l -0.31262,0.33858 0.30063,-0.2272 c 0.38045,-0.28755 0.68932,-0.29762 0.68932,-0.0225 0,0.11261 0.0938,0.25493 0.20841,0.31628 0.22113,0.11833 0.28651,0.56467 0.0996,0.68016 -0.0598,0.037 -0.16974,0.0166 -0.24424,-0.0452 -0.25734,-0.21357 -3.08494,1.16884 -3.08556,1.50851 -1e-4,0.0613 0.15216,0.17853 0.33839,0.26051 0.80887,0.35611 0.30575,0.72896 -1.9784,1.46613 -2.08523,0.67298 -2.70832,1.02755 -1.80574,1.02755 0.51239,0 0.94463,0.15846 0.94463,0.34632 0,0.24221 -0.72815,0.48317 -1.93314,0.63973 -0.63338,0.0823 -1.2812,0.1989 -1.4396,0.25912 -0.39935,0.15182 -0.58705,0.13686 -0.58705,-0.0468 0,-0.086 -0.0703,-0.15631 -0.15631,-0.15631 -0.086,0 -0.15631,0.047 -0.15631,0.10438 0,0.0574 -0.24334,0.2792 -0.54077,0.49288 l -0.540768,0.38851 0.30631,0.0715 c 0.168468,0.0393 0.493878,0.1106 0.723128,0.15839 0.54233,0.11306 0.56415,0.40598 0.0525,0.7048 -0.30685,0.17921 -0.58861,0.21892 -1.786428,0.25182 l -1.42212,0.0391 -0.33918,-0.32413 c -0.18655,-0.17829 -0.37804,-0.32414 -0.42555,-0.32414 -0.15699,0 -1.49345,0.52834 -1.73236,0.68484 -0.12895,0.0845 -0.23446,0.24374 -0.23446,0.35391 0,0.16502 0.0872,0.20588 0.49497,0.23205 0.27224,0.0175 0.70599,-0.01 0.9639,-0.0602 0.52529,-0.10307 1.20206,0.10513 1.31721,0.40521 0.16319,0.42526 -1.11058,1.1799 -2.15079,1.27422 -0.58774,0.0533 -0.64147,0.0405 -0.69538,-0.16565 z m 4.24251,-3.8902 c 0.16962,-0.1254 0.3084,-0.2628 0.3084,-0.30534 0,-0.11864 -0.65146,0.095 -0.74656,0.24488 -0.22332,0.35184 0.002,0.38292 0.43816,0.0605 z m -8.93792,-4.96355 c 1.38713,-0.85041 1.74355,-1.08027 1.74355,-1.12447 0,-0.0982 -2.0985,1.13513 -2.44361,1.43623 -0.2357,0.20564 0.0999,0.0562 0.70006,-0.31176 z m -54.944039,-3.22659 c 0,-0.10562 -0.62373,-0.47552 -0.69004,-0.40921 -0.0593,0.0593 0.46817,0.49095 0.59989,0.49095 0.0496,0 0.0901,-0.0368 0.0901,-0.0817 z m 59.477319,-1.74829 c -0.0349,-0.0349 -0.11968,0.046 -0.18833,0.17988 -0.11933,0.23267 -0.11653,0.23546 0.0635,0.0635 0.10358,-0.0989 0.15975,-0.20845 0.12482,-0.24338 z m -62.083299,-0.67249 c -0.0618,-0.11549 -0.31898,-0.3071 -0.57149,-0.4258 -0.58564,-0.27528 -0.74722,-0.45794 -0.58161,-0.65748 0.15551,-0.18738 -0.0161,-0.30935 -0.30585,-0.21739 -0.31149,0.0989 -0.25082,0.32064 0.15659,0.57244 0.20024,0.12375 0.39954,0.28166 0.44288,0.35091 0.12712,0.20313 0.66742,0.58733 0.82595,0.58733 0.114,0 0.12133,-0.0459 0.0335,-0.21001 z m -3.07038,-4.7964 c 0.037,-0.0598 0.0123,-0.175 -0.0549,-0.25595 -0.14161,-0.17064 -0.0552,-0.36472 0.16246,-0.36472 0.27507,0 0.15517,-0.19494 -0.32165,-0.523 -0.55581,-0.38242 -1.56093,-1.53439 -2.28181,-2.61523 -0.28227,-0.4232 -0.6547,-0.98047 -0.82764,-1.23838 -0.17294,-0.25791 -0.4726,-0.65649 -0.66592,-0.88575 -0.24461,-0.29007 -0.33738,-0.49121 -0.30507,-0.66146 0.0491,-0.25892 -0.69637,-1.3372 -1.68642,-2.43923 -1.03021,-1.14673 -1.68092,-2.19894 -1.68092,-2.71808 0,-0.35149 -0.29562,-0.98778 -1.46016,-3.14287 -2.01644,-3.73159 -2.72599,-5.31712 -3.19436,-7.13805 -0.16919,-0.65776 -0.24445,-1.2037 -0.22427,-1.62695 0.0184,-0.386 -0.0189,-0.69642 -0.0948,-0.78779 -0.0688,-0.0829 -0.22191,-0.5658 -0.34018,-1.07305 -0.11828,-0.50725 -0.28717,-0.97501 -0.37531,-1.03946 -0.0881,-0.0645 -0.18677,-0.31483 -0.21917,-0.5564 -0.0324,-0.24157 -0.10573,-0.43922 -0.16295,-0.43922 -0.13493,0 0.009,1.017 0.32425,2.29251 0.0638,0.25791 0.1914,0.84407 0.28365,1.30257 0.59087,2.93675 0.96083,4.27925 1.45017,5.26236 0.18542,0.37253 0.39698,0.8649 0.47012,1.09415 0.20163,0.63193 0.80613,1.79306 1.32842,2.55162 0.25703,0.37331 1.1469,2.06206 1.97749,3.75279 1.97995,4.03033 2.73658,5.37014 3.45829,6.12384 0.32025,0.33443 0.82958,0.95118 1.13186,1.37055 0.42688,0.59224 0.52346,0.79398 0.43256,0.90352 -0.24581,0.29618 0.84828,1.5796 1.24045,1.45513 0.17283,-0.0549 0.3223,0.0764 0.81802,0.71852 0.61895,0.80169 0.69989,0.8688 0.81779,0.67803 z m 1.34581,-0.71531 c -0.15519,-0.23451 -0.3256,-0.42638 -0.37868,-0.42638 -0.11048,0 -0.0475,0.1209 0.31371,0.60201 0.35781,0.47661 0.40757,0.34209 0.065,-0.17563 z m -0.61491,-0.83627 c -0.0378,-0.0611 -0.11855,-0.11114 -0.1795,-0.11114 -0.0691,0 -0.0612,0.0598 0.021,0.15883 0.14292,0.17221 0.27066,0.13378 0.1585,-0.0477 z m -0.62131,-0.7128 c -0.17944,-0.17186 -0.18166,-0.16964 -0.0498,0.0498 0.0759,0.12634 0.16039,0.20729 0.1878,0.17987 0.0274,-0.0274 -0.0347,-0.13079 -0.13796,-0.22972 z m -6.73003,-1.769 c -0.18322,-0.32955 -0.42437,-0.69297 -0.53591,-0.80759 -0.16861,-0.17329 -0.15557,-0.10303 0.0774,0.41682 0.29323,0.65439 0.52835,0.98994 0.69365,0.98994 0.0539,0 -0.0519,-0.26963 -0.23511,-0.59917 z m 4.89346,-1.18124 c -0.064,-0.11953 -0.14264,-0.191 -0.17482,-0.15882 -0.0322,0.0322 8.3e-4,0.12998 0.0733,0.21733 0.18734,0.22573 0.23801,0.19653 0.10152,-0.0585 z m -1.02404,-0.17343 c -0.0541,-0.1003 -0.22898,-0.29959 -0.38869,-0.44287 -0.26813,-0.24055 -0.2642,-0.22658 0.0513,0.18236 0.35371,0.45847 0.50857,0.57803 0.3374,0.26051 z m -6.4413,-1.77149 c -0.0358,-0.1003 -0.10316,-0.2323 -0.1498,-0.29335 -0.34824,-0.4558 -2.96389,-5.94233 -3.27556,-6.87075 -0.42886,-1.27751 -0.6284,-1.71939 -0.77642,-1.71939 -0.0549,0 -0.22408,-0.24618 -0.37602,-0.54707 -0.15194,-0.30089 -0.39476,-0.68776 -0.5396,-0.85969 l -0.26336,-0.31262 0.0753,0.31262 c 0.0414,0.17193 0.26,0.58371 0.48575,0.91506 0.41154,0.60406 0.51263,0.9613 0.29274,1.0346 -0.21916,0.073 1.57103,3.86121 1.9385,4.10198 0.35975,0.23572 0.65551,1.08641 0.37772,1.08641 -0.18982,0 0.20599,0.9733 0.5512,1.3554 0.1957,0.21662 0.51903,0.64899 0.71851,0.96083 0.29907,0.46753 0.82443,1.01833 0.97128,1.01833 0.0191,0 0.006,-0.0821 -0.0302,-0.18236 z m 5.9164,-4.802 c -0.13834,-0.25849 -0.42618,-0.4928 -0.42618,-0.34692 0,0.10038 0.40037,0.53784 0.49224,0.53784 0.0199,0 -0.01,-0.0859 -0.0661,-0.19092 z m -0.68195,-1.02562 c -0.0882,-0.35154 -1.08096,-2.40725 -1.19718,-2.47908 -0.0476,-0.0294 -0.14443,0.0163 -0.21521,0.1016 -0.16101,0.19401 0.0612,0.81961 0.26359,0.74196 0.13228,-0.0508 0.36252,0.1193 0.36252,0.26778 0,0.0459 -0.0703,0.0834 -0.15631,0.0834 -0.30244,0 -0.14498,0.39586 0.44557,1.12021 0.41513,0.50917 0.59884,0.56985 0.49702,0.16417 z m -10.36043,-2.39677 c -0.12284,-0.21124 -0.15251,-0.14363 -0.052,0.11841 0.0357,0.0931 0.0869,0.14738 0.11375,0.12055 0.0268,-0.0268 -9.3e-4,-0.13436 -0.0618,-0.23896 z m 8.63753,-1.17768 c -0.22985,-0.45715 -0.52652,-0.90235 -0.65927,-0.98933 -0.14447,-0.0947 -0.31253,-0.38393 -0.41865,-0.72059 -0.0975,-0.30934 -0.24684,-0.62016 -0.33184,-0.6907 -0.085,-0.0705 -0.15454,-0.24189 -0.15454,-0.38078 0,-0.30564 -0.45798,-1.8018 -0.72827,-2.37919 -0.10732,-0.22926 -0.22683,-0.54545 -0.26557,-0.70267 -0.0866,-0.35128 -0.25663,-0.27509 -0.25663,0.11499 0,0.62344 0.87958,3.12541 1.43376,4.07832 0.14992,0.25779 0.49744,0.926 0.77226,1.48492 0.43557,0.88583 0.5335,1.01623 0.76318,1.01623 h 0.26349 z m -9.90081,-6.77624 c -0.0736,-0.34698 -0.17408,-0.65571 -0.2232,-0.68607 -0.1164,-0.0719 -0.11369,0.16159 0.006,0.54073 0.0526,0.16616 0.12519,0.4366 0.16138,0.60097 0.0362,0.16438 0.0936,0.27105 0.12761,0.23705 0.034,-0.034 0.002,-0.34571 -0.0721,-0.69268 z m 6.98184,-1.19789 c 0,-0.086 -0.0454,-0.15631 -0.10094,-0.15631 -0.0555,0 -0.0739,0.0703 -0.041,0.15631 0.033,0.086 0.0784,0.1563 0.10094,0.1563 0.0225,0 0.041,-0.0703 0.041,-0.1563 z m -7.50277,-0.0521 c 0,-0.0573 -0.0469,-0.1042 -0.1042,-0.1042 -0.0573,0 -0.10421,0.0469 -0.10421,0.1042 0,0.0573 0.0469,0.10421 0.10421,0.10421 0.0573,0 0.1042,-0.0469 0.1042,-0.10421 z m 0.14617,-0.58428 c 0.10336,-0.26935 -0.1305,-0.97879 -0.32264,-0.97879 -0.15478,0 -0.15471,0.0152 9.3e-4,0.18714 0.12206,0.13487 0.15187,0.29494 0.10672,0.57312 -0.0634,0.39101 0.0893,0.54622 0.21501,0.21853 z m 6.89432,-0.79643 c -0.0262,-0.24358 -0.0934,-0.58355 -0.14933,-0.75549 -0.47525,-1.46044 -0.572,-2.18648 -0.61102,-4.58503 -0.0234,-1.43655 -0.0888,-2.5637 -0.16333,-2.81353 l -0.12435,-0.41682 -0.0337,0.62523 c -0.054,1.00211 0.17241,4.91204 0.347,5.99179 0.19542,1.20858 0.55871,2.39672 0.73283,2.39672 0.0272,0 0.0281,-0.19929 0.002,-0.44287 z m -7.09844,-1.25046 c -0.0396,-0.12896 -0.15948,-0.41808 -0.26642,-0.64249 -0.14947,-0.31371 -0.17936,-0.53615 -0.12928,-0.96223 0.0397,-0.33797 0.0216,-0.60663 -0.0464,-0.68861 -0.10955,-0.13199 10e-4,-1.52723 0.13865,-1.74996 0.0327,-0.0529 -0.0367,-0.1994 -0.15429,-0.32558 -0.23855,-0.25605 -0.26281,-0.35588 -0.10952,-0.45062 0.0573,-0.0354 0.10421,-0.20231 0.10421,-0.37087 0,-0.23018 -0.0486,-0.30647 -0.19539,-0.30647 -0.28753,0 -0.34369,0.47841 -0.16549,1.40977 0.194,1.01397 0.1923,1.05643 -0.0449,1.11847 -0.18788,0.0491 -0.19013,0.0836 -0.0467,0.71553 0.14761,0.65052 0.48505,1.78822 0.66826,2.25306 0.0508,0.12895 0.14347,0.23446 0.20587,0.23446 0.0695,0 0.0856,-0.0908 0.0415,-0.23446 z m 2.66489,-2.0956 c -0.0617,-0.49668 -0.15182,-1.00794 -0.20022,-1.13614 -0.0484,-0.1282 -0.14383,-0.81924 -0.21206,-1.53565 -0.0682,-0.71641 -0.14785,-1.54875 -0.17691,-1.84964 -0.0549,-0.5685 -0.13155,-0.65455 -0.34928,-0.3922 -0.13948,0.16806 -0.13158,0.25067 0.18944,1.98133 0.11695,0.63044 0.2874,1.73241 0.3788,2.44882 0.19111,1.49798 0.22737,1.6416 0.37674,1.49223 0.0715,-0.0715 0.0693,-0.39821 -0.007,-1.00875 z m -0.52443,-5.6036 c 8.3e-4,-0.0937 -0.11564,-0.24719 -0.25892,-0.34107 -0.24916,-0.16326 -0.26051,-0.16123 -0.26051,0.0466 0,0.2929 0.33947,0.74205 0.44127,0.58384 0.0421,-0.0654 0.0773,-0.19563 0.0781,-0.28934 z m 4.064,-1.04789 c 8.7e-4,-0.15422 -0.0453,-0.30939 -0.10261,-0.34481 -0.064,-0.0396 -0.10359,0.12882 -0.10261,0.43672 10e-4,0.36197 0.0297,0.45772 0.10261,0.34482 0.0556,-0.086 0.10173,-0.2825 0.10261,-0.43673 z m 0.0636,-3.12883 c 0.0356,-0.88736 0.0202,-1.32808 -0.0429,-1.22788 -0.0541,0.086 -0.12881,0.78935 -0.16597,1.56308 -0.0485,1.0089 -0.0363,1.35617 0.0429,1.22788 0.0607,-0.0984 0.13543,-0.80177 0.16597,-1.56308 z m -6.70875,-1.53952 c 0.0191,-0.28708 -0.017,-0.46393 -0.10054,-0.49342 -0.0955,-0.0337 -0.12941,0.12997 -0.12709,0.61401 0.004,0.7427 0.17637,0.65116 0.22763,-0.12059 z m 6.85196,-0.52201 c 0,-0.20622 -0.0211,-0.22793 -0.10101,-0.10421 -0.0556,0.086 -0.10102,0.27354 -0.10102,0.41683 0,0.20621 0.0211,0.22793 0.10102,0.1042 0.0556,-0.086 0.10101,-0.27354 0.10101,-0.41682 z m -6.80533,-1.27651 c -0.0289,-0.0716 -0.0526,-0.013 -0.0526,0.13025 0,0.14329 0.0237,0.2019 0.0526,0.13026 0.0289,-0.0716 0.0289,-0.18887 0,-0.26051 z m 2.84554,-0.18236 c 0,-0.13894 -0.0112,-0.13894 -0.10102,0 -0.0556,0.086 -0.10101,0.22664 -0.10101,0.31261 0,0.13894 0.0112,0.13894 0.10101,0 0.0556,-0.086 0.10102,-0.22664 0.10102,-0.31261 z m 4.59154,-2.59188 c 0.11368,-0.41022 0.50637,-1.64782 0.87264,-2.75022 0.92326,-2.77881 1.10057,-3.44305 0.97766,-3.66266 -0.0714,-0.12765 -0.0561,-0.23133 0.0525,-0.35514 0.21001,-0.23947 0.29497,-0.56381 0.19103,-0.72923 -0.17041,-0.2712 -1.33574,3.44203 -1.94003,6.1818 -0.20222,0.9168 -0.39444,1.78405 -0.42716,1.92722 -0.12604,0.55148 0.0769,0.0975 0.2734,-0.61177 z m -3.46357,-3.6342 c -0.16978,-0.20457 -0.28176,-0.15475 -0.35094,0.15613 -0.0351,0.15761 -0.0881,0.37526 -0.11789,0.48366 -0.0357,0.13009 0.0532,0.077 0.26148,-0.15612 0.23001,-0.25743 0.28625,-0.38861 0.20735,-0.48367 z m 0.12568,-0.69741 c 0,-0.0253 -0.0469,-0.0749 -0.10421,-0.11036 -0.0573,-0.0354 -0.1042,-0.0147 -0.1042,0.046 0,0.0607 0.0469,0.11036 0.1042,0.11036 0.0573,0 0.10421,-0.0207 0.10421,-0.046 z m 1.25046,-4.0067 c 0,-0.22028 -0.16878,-0.0202 -0.25419,0.30127 -0.0665,0.25036 -0.0629,0.25263 0.0925,0.0582 0.0889,-0.11125 0.1617,-0.27303 0.1617,-0.3595 z m 5.15202,-1.18366 c 3.36702,-7.06912 7.46741,-12.69764 12.77539,-17.53651 1.21257,-1.10541 1.88038,-1.66104 2.12434,-1.76749 0.13135,-0.0573 0.37439,-0.26716 0.5401,-0.46633 l 0.30128,-0.36212 -0.36472,0.25293 c -6.00996,4.16791 -11.06844,9.99164 -14.07676,16.20629 -0.66303,1.3697 -1.14996,2.5085 -2.14984,5.0279 -0.0284,0.0716 -0.008,0.13026 0.0456,0.13026 0.0535,0 0.41559,-0.66822 0.80459,-1.48493 z m 85.089617,-27.42326 c 0,-0.11013 -0.83707,-0.92579 -0.89285,-0.87 -0.0682,0.0682 0.68547,0.91291 0.8147,0.9132 0.043,9e-5 0.0782,-0.0193 0.0782,-0.0432 z m -51.112617,-0.78269 c 2.139404,-0.4308 4.162344,-0.71375 6.173844,-0.86354 2.198385,-0.1637 2.021605,-0.34249 -0.33835,-0.34219 -1.83069,2.1e-4 -3.02988,0.16596 -5.001844,0.69124 -1.33059,0.35443 -2.76144,0.81414 -2.76144,0.8872 0,0.0278 0.0821,0.0262 0.18236,-0.004 0.1003,-0.0299 0.88574,-0.1959 1.74543,-0.36901 z M 106.9142,183.9148 c 0,-0.12295 -0.20324,-0.25447 -0.27788,-0.17983 -0.0747,0.0746 0.0569,0.27789 0.17982,0.27789 0.0539,0 0.0981,-0.0441 0.0981,-0.0981 z m -1.09415,-0.52718 c -0.0354,-0.0573 -0.1113,-0.1042 -0.16861,-0.1042 -0.0573,0 -0.0752,0.0469 -0.0398,0.1042 0.0354,0.0573 0.11129,0.10421 0.1686,0.10421 0.0573,0 0.0752,-0.0469 0.0398,-0.10421 z m -68.118617,-0.69399 c 0.0772,-0.0772 0.34789,-0.28315 0.6015,-0.45764 0.49094,-0.33777 0.61547,-0.50004 0.22665,-0.29533 -0.42431,0.2234 -1.84964,1.27319 -1.84964,1.36231 0,0.0937 0.78918,-0.37702 1.02149,-0.60934 z m 68.567727,0.19902 c -0.0199,-0.10344 -0.13513,-0.18744 -0.26628,-0.19409 -0.12715,-0.007 -0.29247,-0.0534 -0.36738,-0.10421 -0.0749,-0.0509 0.006,0.0352 0.18048,0.19129 0.36876,0.33044 0.50224,0.36195 0.45318,0.10701 z m -68.954017,-0.65838 c 0.34562,-0.2461 0.39871,-0.51393 0.10187,-0.51393 -0.12113,0 -0.26581,0.13036 -0.36472,0.32863 -0.24532,0.49176 -0.20623,0.51932 0.26285,0.1853 z m -3.02798,-0.19115 c 0.19843,-0.16634 0.32992,-0.33398 0.29219,-0.37252 -0.0804,-0.0821 -0.92136,0.45155 -0.92136,0.58462 0,0.1778 0.27444,0.0853 0.62917,-0.2121 z m 3.22642,-1.20852 c 0.17707,-0.21335 -0.09,-0.21574 -0.37085,-0.003 -0.19831,0.14999 -0.19793,0.15306 0.0194,0.15631 0.12194,0.002 0.28008,-0.067 0.35143,-0.153 z m 3.75473,-0.18311 c 0.44801,-0.35492 0.48306,-0.52683 0.0716,-0.35092 -0.85968,0.3675 -0.91194,0.40437 -0.78682,0.55513 0.13938,0.16794 0.30532,0.12056 0.71527,-0.20421 z m 1.97584,-0.97408 c 0.81613,-0.32666 0.93856,-0.40821 0.93856,-0.62523 0,-0.18011 0.058,-0.24958 0.20841,-0.24958 0.11463,0 0.20841,0.0692 0.20841,0.15373 0,0.11699 0.0568,0.13213 0.23775,0.0633 0.67619,-0.25709 1.20294,-0.56013 1.16174,-0.66836 -0.0255,-0.067 0.19578,-0.25763 0.49176,-0.42359 0.49798,-0.27924 0.54785,-0.2885 0.66813,-0.12401 0.11999,0.16411 0.23279,0.14013 1.46858,-0.3122 0.91522,-0.33499 1.51353,-0.49352 1.89167,-0.50123 0.44724,-0.009 0.58759,-0.0571 0.7335,-0.25052 0.1361,-0.18047 0.43541,-0.2993 1.21842,-0.4837 0.57089,-0.13445 1.24901,-0.29473 1.50691,-0.35618 0.25791,-0.0614 1.12542,-0.18874 1.9278,-0.28286 0.80238,-0.0941 1.55105,-0.22011 1.66372,-0.27997 0.20059,-0.10657 0.20005,-0.11202 -0.026,-0.26214 -0.127,-0.0843 -0.2309,-0.19061 -0.2309,-0.23619 0,-0.12147 0.84276,-0.40917 1.14625,-0.39131 0.14329,0.008 0.571284,-0.0212 0.951104,-0.0659 0.43349,-0.051 0.71431,-0.0428 0.75434,0.0219 0.12116,0.19606 -0.26233,0.37193 -0.95656,0.43869 -0.481734,0.0463 -0.638714,0.0931 -0.508644,0.15143 0.168054,0.0754 1.560564,-0.0885 1.918424,-0.22586 0.0848,-0.0325 0.11488,-0.1331 0.0763,-0.25482 -0.11811,-0.37215 0.1298,-0.50368 0.94933,-0.50368 0.4191,0 0.88798,-0.0479 1.04197,-0.10645 0.20343,-0.0774 0.32199,-0.0716 0.43368,0.0211 0.12399,0.1029 0.17293,0.0932 0.25302,-0.0499 0.11489,-0.2053 0.59955,-0.22745 1.65116,-0.0755 0.414645,0.0599 0.713795,0.0604 0.772915,0.001 0.0591,-0.0591 0.0393,-0.11246 -0.0512,-0.13785 -0.0812,-0.0228 -0.522815,-0.14948 -0.981315,-0.28155 -0.45851,-0.13207 -1.00441,-0.23144 -1.21312,-0.22082 -0.29409,0.015 -0.37615,-0.0189 -0.36471,-0.15032 0.0319,-0.36645 -0.27865,-0.40026 -1.56306,-0.17021 -0.67965,0.12173 -1.79264,0.29224 -2.47332,0.37891 -0.680674,0.0867 -1.261794,0.18178 -1.291364,0.21136 -0.0296,0.0296 0.003,0.12197 0.072,0.20533 0.15603,0.18801 -0.0581,0.32336 -0.67113,0.42433 -0.2282,0.0376 -0.59612,0.14507 -0.81761,0.23887 -0.35081,0.14856 -0.41796,0.15102 -0.52103,0.0191 -0.15874,-0.20322 -1.49704,-0.21854 -1.57399,-0.018 -0.0707,0.18429 -1.19227,0.68362 -1.49296,0.66469 -0.13161,-0.008 -0.3471,0.0556 -0.47886,0.1419 -0.38329,0.25114 -1.5368,0.67514 -1.83676,0.67514 -0.15124,0 -0.49999,0.14903 -0.77499,0.33119 -0.83174,0.55092 -2.22406,0.52265 -1.50456,-0.0306 0.14056,-0.10807 0.18839,-0.19281 0.10957,-0.19411 -0.0769,-0.001 -0.25662,0.0895 -0.39933,0.20177 -0.18021,0.14176 -0.35059,0.18587 -0.5578,0.14443 -0.56785,-0.11358 -2.39387,0.59415 -2.39387,0.9278 0,0.0732 0.10551,0.17942 0.23447,0.23599 0.16818,0.0738 0.23446,0.19124 0.23446,0.41548 0,0.28603 -0.0332,0.31537 -0.39077,0.34496 -0.33957,0.0281 -0.39077,0.003 -0.39077,-0.19 0,-0.1561 -0.0543,-0.21154 -0.18236,-0.18608 -0.12055,0.024 -0.17147,0.11392 -0.15023,0.26538 0.025,0.17829 -0.0848,0.30108 -0.49528,0.55363 -0.31663,0.19483 -0.55215,0.42308 -0.58931,0.57114 -0.0429,0.17083 -0.20246,0.30031 -0.51924,0.42129 -0.45646,0.17433 -0.81545,0.46009 -0.57798,0.46009 0.0639,0 0.5386,-0.16904 1.05481,-0.37565 z m 4.95891,-2.52842 c -0.0878,-0.14213 0.26902,-0.32629 0.63226,-0.32629 0.25305,0 0.27039,0.0189 0.13711,0.14945 -0.20442,0.20021 -0.68645,0.31101 -0.76937,0.17684 z m 6.73883,-1.99682 c -0.29873,-0.12007 -0.2967,-0.24462 0.007,-0.44377 0.31445,-0.20603 0.67808,-0.23849 1.03481,-0.0924 0.34157,0.13993 0.35575,0.22541 0.077,0.46411 -0.22464,0.19235 -0.73753,0.22536 -1.11901,0.072 z m 6.883394,-1.83541 c -0.0797,-0.20765 0.22138,-0.45385 0.55499,-0.45385 0.32459,0 0.40619,0.18307 0.1887,0.42338 -0.22315,0.24658 -0.65399,0.26423 -0.74369,0.0305 z m 38.940813,6.35748 c 0,-0.0766 -0.50533,-0.55903 -0.5856,-0.55903 -0.0296,0 0.0464,0.14068 0.16878,0.31262 0.20283,0.28485 0.41682,0.41135 0.41682,0.24641 z m -59.396927,-1.80949 c 0.086,-0.0556 0.10942,-0.10101 0.0521,-0.10101 -0.0573,0 -0.17454,0.0455 -0.26051,0.10101 -0.086,0.0556 -0.10941,0.10102 -0.0521,0.10102 0.0573,0 0.17455,-0.0455 0.26051,-0.10102 z m 3.12616,-0.52102 c 0,-0.0573 -0.0469,-0.10421 -0.10421,-0.10421 -0.0573,0 -0.1042,0.0469 -0.1042,0.10421 0,0.0573 0.0469,0.1042 0.1042,0.1042 0.0573,0 0.10421,-0.0469 0.10421,-0.1042 z m -0.77364,-1.26324 c 0.0403,-0.0652 0.0315,-0.0992 -0.0194,-0.0755 -0.45253,0.20958 -0.66579,0.34422 -0.66579,0.42035 0,0.11184 0.58491,-0.18248 0.68523,-0.3448 z m 5.93105,-2.17434 c 0.0365,-0.0591 -0.005,-0.0765 -0.0981,-0.0409 -0.18052,0.0693 -0.21355,0.14397 -0.0637,0.14397 0.0539,0 0.12671,-0.0464 0.16172,-0.10301 z m 6.61777,-0.0533 c 0.24539,-0.14028 0.24764,-0.14914 0.0388,-0.15261 -0.12194,-0.002 -0.28008,0.0666 -0.35143,0.15261 -0.1619,0.19508 -0.0286,0.19508 0.31261,0 z m 14.986189,-0.0781 c 0.0305,-0.16045 -0.0586,-0.18236 -0.74153,-0.18236 -0.42688,0 -0.93441,-0.0274 -1.12784,-0.0609 -0.26635,-0.0461 -0.31376,-0.0339 -0.19539,0.0505 0.086,0.0613 0.2763,0.1121 0.42296,0.11298 0.14666,8.3e-4 0.35767,0.0717 0.46892,0.1574 0.28877,0.22242 1.12643,0.16697 1.17288,-0.0777 z m -3.41942,-0.22831 c 0,-0.10999 -0.19998,-0.15619 -0.25946,-0.0599 -0.036,0.0582 0.008,0.1059 0.097,0.1059 0.0893,0 0.16246,-0.0207 0.16246,-0.046 z M 43.036463,285.75615 c -0.71641,-0.32086 -1.47772,-0.60769 -1.69179,-0.63738 -0.21408,-0.0297 -0.44256,-0.11823 -0.50774,-0.19677 -0.20405,-0.24587 0.60141,-0.1731 1.41541,0.12787 1.64381,0.60781 2.86017,1.295 2.28519,1.29105 -0.10918,-10e-4 -0.78466,-0.26389 -1.50107,-0.58477 z m 45.471299,-0.22305 c -0.1248,-0.0807 -0.12135,-0.84712 0.005,-1.05114 0.11509,-0.18621 0.35543,-0.14099 0.47913,0.0902 0.0925,0.1729 0.14965,0.18972 0.32521,0.0958 0.27011,-0.14456 0.34198,-0.0695 0.35734,0.37302 0.0106,0.30513 -0.0313,0.37017 -0.29891,0.46344 -0.36206,0.12622 -0.69943,0.1374 -0.86751,0.0288 z m -44.325049,-0.31768 c -0.51115,-0.19799 -0.65269,-0.50936 -0.20841,-0.45848 0.45494,0.0521 1.15806,0.35152 1.1172,0.47573 -0.0616,0.18716 -0.39752,0.18078 -0.90879,-0.0173 z m -1.90174,-0.86991 c -0.49027,-0.21603 -0.58938,-0.32929 -0.39387,-0.45013 0.14282,-0.0883 1.16478,0.36864 1.12064,0.50104 -0.0619,0.18584 -0.21357,0.17522 -0.72677,-0.0509 z m 45.309089,-0.94415 c -0.0892,-0.12738 -0.16222,-0.28876 -0.16222,-0.35861 0,-0.10363 1.17236,-0.81657 1.34276,-0.81657 0.0844,0 0.20961,0.58399 0.1555,0.72499 -0.0457,0.11897 -0.96665,0.68178 -1.11568,0.68178 -0.032,0 -0.13114,-0.10421 -0.22036,-0.23159 z m -33.474209,-1.70672 c -0.0652,-0.1698 0.11873,-0.34972 0.36039,-0.35261 0.19721,-0.002 0.28474,0.31738 0.11612,0.42415 -0.22215,0.14067 -0.40566,0.11312 -0.47651,-0.0715 z m -20.30155,-0.5611 c -0.17194,-0.1147 -0.39536,-0.20886 -0.4965,-0.20923 -0.21786,-10e-4 -0.99306,-0.68207 -0.89159,-0.78354 0.0896,-0.0896 1.15548,0.21866 1.67805,0.48526 0.30666,0.15644 0.39281,0.25767 0.36786,0.43223 -0.0433,0.30319 -0.27622,0.32983 -0.65782,0.0753 z m 18.85692,-0.35781 c -0.166,-0.1225 -0.17929,-0.17594 -0.0711,-0.28562 0.15475,-0.15685 0.4921,-0.001 0.4921,0.22778 0,0.20242 -0.1898,0.22849 -0.42103,0.0578 z m 6.656424,-0.20247 c -0.29586,-0.0652 -0.624114,-0.19674 -0.729434,-0.29229 -0.1875,-0.17011 -0.85489,-0.31802 -2.02949,-0.44978 -0.68688,-0.077 -1.07032,-0.29715 -0.81924,-0.47024 0.21464,-0.14797 1.29151,-0.0305 2.49853,0.27263 0.54316,0.1364 1.158804,0.24799 1.368084,0.24799 0.32281,0 0.39976,0.0464 0.5074,0.30632 0.21986,0.5308 0.10855,0.5847 -0.79585,0.38537 z m -17.020624,-0.74379 c -0.10943,-0.13185 -0.089,-0.15631 0.13079,-0.15631 0.14328,0 0.31889,0.0703 0.39024,0.15631 0.10942,0.13185 0.089,0.1563 -0.13079,0.1563 -0.14329,0 -0.31889,-0.0703 -0.39024,-0.1563 z m 11.45544,-0.28676 c -0.19668,-0.13166 -0.40306,-0.34183 -0.45863,-0.46704 -0.0556,-0.12521 -0.19624,-0.24129 -0.31261,-0.25795 -0.12804,-0.0183 -0.22475,-0.12297 -0.24491,-0.265 -0.0183,-0.12907 -0.12384,-0.28312 -0.23447,-0.34233 -0.24137,-0.12917 -0.26746,-0.41292 -0.038,-0.41292 0.25725,0 0.56628,0.20103 0.56628,0.36838 0,0.0839 0.091,0.15264 0.20226,0.15264 0.25941,0 0.36956,0.17796 0.22097,0.357 -0.0913,0.10997 -0.0106,0.19161 0.3818,0.3862 0.33503,0.16616 0.49754,0.31198 0.49754,0.44648 0,0.2936 -0.17751,0.30416 -0.58025,0.0345 z m -7.88642,-0.44517 c -0.36679,-0.15569 -0.46126,-0.46643 -0.1418,-0.46643 0.10828,0 0.30757,0.0905 0.44288,0.20101 0.34594,0.28268 0.14886,0.45641 -0.30108,0.26542 z m 9.34699,-0.10825 c -0.12379,-0.14916 -0.11252,-0.1654 0.0927,-0.13372 0.12848,0.0198 0.23526,0.0818 0.23729,0.13765 0.006,0.17539 -0.18304,0.17313 -0.32999,-0.004 z m -23.23232,-0.11869 c -0.19614,-0.0711 -0.83364,-0.66833 -0.83364,-0.78096 0,-0.18054 0.30459,-0.067 0.76656,0.28573 0.60545,0.46229 0.63795,0.70219 0.0671,0.49523 z m -2.76641,-0.72363 c -0.14054,-0.15165 -0.25554,-0.33533 -0.25554,-0.40817 0,-0.0728 -0.38686,-0.43607 -0.85969,-0.80715 -1.08027,-0.84783 -1.47751,-1.26413 -1.39971,-1.46687 0.0983,-0.25612 0.59586,-0.0457 1.74361,0.7373 0.57212,0.39031 1.09806,0.73794 1.16877,0.77254 0.0707,0.0346 0.29445,0.14212 0.4972,0.23895 0.51,0.24357 1.00259,0.65272 0.90467,0.75144 -0.0448,0.0451 -0.22069,0 -0.39098,-0.10088 -0.33789,-0.1996 -0.51761,-0.15548 -0.51761,0.12705 0,0.47525 -0.51171,0.56474 -0.89072,0.15579 z m 12.06151,-0.37034 c -0.16559,-0.1656 -0.16019,-0.50019 0.008,-0.50019 0.20882,0 0.59631,0.30855 0.59631,0.47483 0,0.18349 -0.42829,0.20145 -0.60439,0.0254 z m 9.77444,-0.3701 c -0.67941,-0.3394 -0.21692,-0.59763 0.47678,-0.26619 0.21666,0.10351 0.41294,0.24682 0.43618,0.31846 0.0629,0.1938 -0.48294,0.16255 -0.91296,-0.0523 z m -18.34467,-0.58034 c -0.54453,-0.36398 -1.00212,-0.74564 -1.02281,-0.85308 -0.0364,-0.18903 -0.0292,-0.18913 0.26051,-0.003 1.31096,0.84037 1.909,1.2738 1.9109,1.38491 0.004,0.21574 -0.12153,0.15814 -1.1486,-0.5284 z m -3.17427,-0.27982 c -0.10405,-0.11498 -0.1585,-0.23974 -0.12099,-0.27725 0.076,-0.076 0.48629,0.26002 0.48629,0.39824 0,0.15213 -0.16869,0.0963 -0.3653,-0.12099 z m 8.91012,0.0987 c 0,-0.0607 0.0469,-0.0814 0.10421,-0.046 0.0573,0.0354 0.1042,0.0851 0.1042,0.11035 0,0.0253 -0.0469,0.046 -0.1042,0.046 -0.0573,0 -0.10421,-0.0497 -0.10421,-0.11036 z m -8.31036,-0.16833 c -0.22456,-0.15665 -0.32398,-0.45075 -0.15237,-0.45075 0.0452,0 0.24444,0.13877 0.44287,0.30838 0.3006,0.25693 0.32602,0.30817 0.15237,0.30715 -0.11462,-0.001 -0.31391,-0.0748 -0.44287,-0.16478 z m -4.66081,-1.69882 c -0.28096,-0.28524 -0.48075,-0.5487 -0.44398,-0.58546 0.0763,-0.0764 1.22315,0.87299 1.22315,1.01255 0,0.22095 -0.3062,0.0531 -0.77917,-0.42709 z m 1.0354,0.30329 c -0.0378,-0.0611 -0.0437,-0.13616 -0.0131,-0.16675 0.0746,-0.0746 0.27788,0.0569 0.27788,0.17983 0,0.13318 -0.1799,0.12429 -0.2648,-0.0131 z m -2.88741,-1.30313 c -0.41157,-0.22328 -0.37312,-0.46142 0.0745,-0.46142 0.25563,0 0.39395,0.0615 0.47374,0.21056 0.2145,0.4008 -0.0493,0.52152 -0.54823,0.25086 z m 15.12643,-0.0331 c -0.18213,-0.14878 -0.21993,-0.23698 -0.13757,-0.32093 0.083,-0.0846 0.18114,-0.0606 0.36472,0.0894 0.18212,0.14878 0.21993,0.23698 0.13756,0.32093 -0.083,0.0846 -0.18113,0.0606 -0.36471,-0.0894 z m 2.22372,0.12181 c -0.15644,-0.0559 -0.17549,-0.34177 -0.0228,-0.34177 0.10749,0 0.26543,0.29202 0.19197,0.35494 -0.0214,0.0183 -0.0975,0.0124 -0.16918,-0.0132 z m 4.87214,-0.33606 c -0.31526,-0.0812 -0.42215,-0.42253 -0.13231,-0.42253 0.10787,0 0.28716,0.0672 0.39841,0.14929 0.25927,0.19135 0.0902,0.36498 -0.2661,0.27324 z m -1.00368,-0.6798 c -0.0356,-0.0927 -0.039,-0.1942 -0.007,-0.22562 0.10029,-0.1003 0.50273,0.079 0.4607,0.20521 -0.0639,0.1919 -0.38186,0.20622 -0.45317,0.0204 z m -8.37533,-0.63832 c -0.79932,-0.48503 -1.25046,-0.84517 -1.25046,-0.99823 0,-0.18743 0.50617,-0.0696 0.97317,0.22657 0.51779,0.32838 0.69411,0.38132 0.69411,0.20841 0,-0.15825 0.27028,-0.12447 0.41682,0.0521 0.0973,0.11727 0.1002,0.19189 0.0115,0.29878 -0.0899,0.10838 -0.0805,0.1738 0.0393,0.27328 0.19068,0.15825 0.20782,0.41876 0.0273,0.4156 -0.0716,-10e-4 -0.48195,-0.21569 -0.91179,-0.47652 z m -10.85582,-1.08427 c -0.32169,-0.34388 -0.64487,-0.62523 -0.71818,-0.62523 -0.0785,0 -0.0328,0.10702 0.11144,0.26051 0.38639,0.4113 0.0357,0.3134 -0.58063,-0.16209 -0.55764,-0.43022 -0.77191,-0.72365 -0.52842,-0.72365 0.0742,0 0.24501,0.11723 0.37961,0.26051 0.29485,0.31386 0.45506,0.33674 0.36472,0.0521 -0.13163,-0.41474 0.22209,-0.20337 1.02037,0.60973 0.44177,0.44997 0.80322,0.84855 0.80322,0.88574 0,0.21279 -0.33888,-0.009 -0.85213,-0.55762 z m 17.05603,0.41682 c -0.0354,-0.0573 0.006,-0.10421 0.0919,-0.10421 0.086,0 0.18529,0.0469 0.22071,0.10421 0.0354,0.0573 -0.006,0.1042 -0.0919,0.1042 -0.086,0 -0.18529,-0.0469 -0.22071,-0.1042 z m -1.53703,-0.94432 c -0.44417,-0.22708 -0.80759,-0.45138 -0.80759,-0.49844 0,-0.20697 0.16203,-0.18537 0.81504,0.10869 0.69984,0.31515 1.06065,0.56177 1.06065,0.72499 0,0.16092 -0.25277,0.0816 -1.0681,-0.33524 z m -20.58861,-0.74757 c -0.19848,-0.25825 -0.29047,-0.45769 -0.22168,-0.48061 0.14543,-0.0485 0.82896,0.59976 0.82896,0.78617 0,0.26648 -0.27334,0.12895 -0.60728,-0.30556 z m 2.27977,-0.90592 c -0.14625,-0.20539 -0.1799,-0.32847 -0.10283,-0.3761 0.13384,-0.0827 0.74153,0.46267 0.66089,0.59313 -0.10794,0.17466 -0.34472,0.0826 -0.55806,-0.21703 z m 2.91364,0.0461 c -0.0707,-0.0852 -0.0965,-0.23764 -0.0571,-0.33867 0.0649,-0.16659 0.0901,-0.16086 0.27161,0.0616 0.1889,0.23156 0.18863,0.43201 -5.2e-4,0.43201 -0.0469,0 -0.14318,-0.0697 -0.21392,-0.15498 z m -5.78221,-0.7419 c -0.12876,-0.19653 -0.14649,-0.30316 -0.0641,-0.38556 0.14348,-0.14347 0.27294,-0.0113 0.36295,0.37065 0.0853,0.36195 -0.0665,0.36953 -0.29886,0.0149 z m -2.16289,-0.97951 -0.34031,-0.31331 0.22634,-0.19179 0.22634,-0.19179 -0.44786,-0.57062 c -0.66881,-0.85213 -1.0167,-1.44209 -0.95113,-1.61295 0.0322,-0.0838 -0.0114,-0.31967 -0.0968,-0.52406 -0.37494,-0.89735 -0.0173,-0.88927 0.57047,0.0129 0.24069,0.36942 0.50259,0.7256 0.58201,0.79151 0.10294,0.0854 0.12626,0.25215 0.0812,0.5807 -0.0459,0.33481 -0.0199,0.51021 0.095,0.64131 0.23662,0.26995 0.49672,0.82225 0.42229,0.89667 -0.0359,0.0359 0.0143,0.0653 0.11163,0.0653 0.23502,0 0.31836,0.24458 0.17476,0.51289 -0.15435,0.28839 -0.25121,0.27407 -0.65399,-0.0968 z m 4.05152,-0.20481 c -0.41838,-0.38566 -0.77789,-0.83607 -1.14593,-1.43572 -0.0482,-0.0786 -0.0259,-0.13015 0.0565,-0.12999 0.18551,4.2e-4 1.67521,1.73983 1.62333,1.89549 -0.0241,0.0724 -0.24688,-0.0652 -0.53386,-0.32978 z m 2.3294,0.20551 c -0.0614,-0.11463 -0.0724,-0.20841 -0.0245,-0.20841 0.11079,0 0.33712,0.22386 0.33712,0.33346 0,0.16174 -0.20247,0.0807 -0.31261,-0.12505 z m -3.58311,-0.73864 c -0.34524,-0.27157 -0.62601,-0.78685 -0.47844,-0.87806 0.13285,-0.0821 1.06597,0.86448 0.9836,0.99778 -0.0905,0.14646 -0.19964,0.1206 -0.50516,-0.11972 z m -1.05063,-1.46464 c -0.20411,-0.24257 -0.24506,-0.35751 -0.15779,-0.44287 0.0867,-0.0848 0.1846,-0.0326 0.37007,0.19733 0.46195,0.57257 0.25972,0.80648 -0.21228,0.24554 z m -0.90563,-1.10523 c -0.20427,-0.21493 -0.48048,-0.59034 -0.6138,-0.83425 -0.15918,-0.29122 -0.26929,-0.39997 -0.32072,-0.31676 -0.0585,0.0946 -0.13035,0.0796 -0.28356,-0.059 -0.28702,-0.25975 -0.49936,-0.79452 -0.35171,-0.88577 0.0741,-0.0458 -0.0294,-0.29662 -0.295,-0.71428 -0.25968,-0.40843 -0.36831,-0.66896 -0.29724,-0.71288 0.12448,-0.0769 0.60501,0.44567 0.8955,0.97388 0.15754,0.28647 0.16468,0.35728 0.0436,0.4321 -0.11828,0.0731 -0.10026,0.15203 0.0984,0.43101 0.13375,0.18784 0.26153,0.28647 0.28396,0.21919 0.075,-0.22507 0.20946,-0.1266 0.72809,0.53335 0.61036,0.77667 0.78637,1.08364 0.70076,1.22215 -0.10371,0.16781 -0.1987,0.12118 -0.58829,-0.28871 z m -3.10209,-0.61324 c -0.2261,-0.28743 -0.28408,-0.55907 -0.11934,-0.55907 0.13327,0 0.52859,0.51707 0.52859,0.69139 0,0.22344 -0.17355,0.16733 -0.40925,-0.13232 z m -0.88161,-2.49013 c -0.28637,-0.54805 -0.3125,-0.77567 -0.072,-0.62702 0.19167,0.11846 0.65235,0.98424 0.58322,1.09609 -0.11974,0.19374 -0.20653,0.11411 -0.51125,-0.46907 z m -2.40199,-3.1623 c -0.24006,-0.47373 -0.2511,-0.63792 -0.0429,-0.63792 0.11874,0 0.61489,1.00204 0.53548,1.08146 -0.13979,0.13979 -0.24494,0.0451 -0.49255,-0.44354 z m 1.12583,-1.0636 c -0.15205,-0.18969 -0.8221,-1.53443 -0.91721,-1.84078 -0.0535,-0.17219 -0.0308,-0.23447 0.0855,-0.23447 0.20694,0 1.03236,1.66003 0.98527,1.98148 -0.0291,0.19874 -0.0562,0.21525 -0.15355,0.0938 z m 0.0436,-1.52817 c -0.39042,-0.83123 -0.38376,-1.22179 0.0114,-0.66688 0.25714,0.36112 0.63069,1.15307 0.63405,1.34421 10e-4,0.0717 -0.0581,0.13026 -0.1319,0.13026 -0.0738,0 -0.30489,-0.36341 -0.51351,-0.80759 z m -1.99014,-0.26051 c -0.37074,-0.87786 -0.80092,-2.03684 -0.80092,-2.15782 0,-0.13199 0.0222,-0.13105 0.16007,0.007 0.16007,0.16007 0.98618,1.98521 0.98618,2.17878 0,0.14855 -0.28039,0.12604 -0.34533,-0.0277 z m 0.95413,-2.05805 c -0.2368,-0.36229 -0.32408,-0.6999 -0.20066,-0.77618 0.14051,-0.0868 0.44651,0.52531 0.40454,0.80928 -0.0332,0.22435 -0.0359,0.22391 -0.20388,-0.0331 z m 0.85358,-2.31092 c -0.25725,-0.42194 -0.28681,-1.02365 -0.0503,-1.02365 0.29489,0 0.65701,1.23683 0.38857,1.32717 -0.0699,0.0235 -0.22215,-0.11305 -0.33828,-0.30352 z m -3.6411395,-2.94985 c -0.25584,-0.68379 -0.26567,-0.78313 -0.0775,-0.78313 0.15421,0 0.46973,0.63649 0.5108595,1.03056 0.0506,0.48483 -0.2164595,0.33235 -0.4333895,-0.24743 z m 2.2762895,-1.47605 c -0.35983,-0.83944 -0.47016,-1.60918 -0.20737,-1.44677 0.073,0.0451 0.63087,1.69731 0.63087,1.86838 0,0.0346 -0.0486,0.0629 -0.10791,0.0629 -0.0594,0 -0.20137,-0.21803 -0.31559,-0.48451 z m -3.1529695,-1.92236 c -0.23479,-0.52499 -0.22753,-0.8285 0.0162,-0.67787 0.20232,0.12505 0.47537,1.00105 0.35084,1.12558 -0.0842,0.0842 -0.18308,-0.0364 -0.36705,-0.44771 z m -2.15115,-2.17131 c -0.13519,-0.25261 -0.1411,-0.91186 -0.009,-0.99356 0.13315,-0.0823 0.27791,0.21442 0.36701,0.75225 0.06,0.36238 0.044,0.44287 -0.0884,0.44287 -0.089,0 -0.21035,-0.0907 -0.26968,-0.20156 z m -0.34884,-2.88768 c -0.10802,-0.10802 -0.086,-0.84939 0.0273,-0.91942 0.14396,-0.089 0.33606,0.3266 0.29821,0.64517 -0.0326,0.27424 -0.1916,0.4082 -0.32555,0.27425 z m -0.16958,-1.6356 c -0.1714,-0.45081 -0.2616,-1.90299 -0.1235,-1.98834 0.16301,-0.10074 0.20648,0.0554 0.31696,1.13821 0.0979,0.95953 0.004,1.37049 -0.19346,0.85013 z m 1.31583,-1.69897 c -0.10782,-0.10782 -0.0861,-1.16192 0.0254,-1.23081 0.14443,-0.0893 0.18957,0.0405 0.2306,0.66302 0.0346,0.52425 -0.0692,0.7545 -0.25596,0.56779 z m -1.11288,-2.84892 c -0.14088,-0.26324 -0.0998,-0.85586 0.0631,-0.90922 0.15041,-0.0493 0.38011,0.50643 0.33543,0.81149 -0.0465,0.3173 -0.25378,0.36814 -0.3985,0.0977 z m 0.93539,-0.16215 c -0.058,-0.15256 -0.13546,-0.83532 -0.17213,-1.51725 -0.06,-1.11488 -0.0491,-1.23987 0.10719,-1.23987 0.3087,0 0.60284,0.61802 0.54554,1.14626 -0.028,0.25791 -0.0825,0.76275 -0.12124,1.12187 -0.079,0.73288 -0.20266,0.90114 -0.35936,0.48899 z m -1.61964,-0.28664 c -0.11119,-0.28975 -0.004,-0.8553 0.16241,-0.8553 0.22287,0 0.26981,0.70507 0.0586,0.88035 -0.13179,0.10938 -0.17114,0.10492 -0.22102,-0.025 z m 2.87541,-2.88045 c -0.15718,-0.2937 -0.13254,-0.63208 0.046,-0.63208 0.20399,0 0.51031,0.47755 0.43395,0.67653 -0.0846,0.22037 -0.35148,0.19566 -0.47998,-0.0444 z m -1.41398,-0.34551 c -0.08,-0.21224 0.0987,-1.37339 0.21196,-1.37721 0.0575,-0.002 0.11792,0.33505 0.13482,0.75198 0.0256,0.63106 0.004,0.75548 -0.13353,0.75548 -0.0903,0 -0.18624,-0.0586 -0.21325,-0.13025 z m -1.04166,-0.83035 c -0.0941,-0.24519 -0.0113,-1.0714 0.10736,-1.0714 0.14152,0 0.19597,0.99197 0.0618,1.12612 -0.0733,0.0733 -0.12667,0.0561 -0.16918,-0.0547 z m 1.1726,-0.87453 c -0.11934,-0.11935 -0.0874,-0.85441 0.0406,-0.9335 0.14086,-0.0871 0.2972,0.13757 0.29937,0.43015 0.002,0.25863 -0.23452,0.60875 -0.33993,0.50335 z m 0.0721,-1.5371 c -0.10893,-0.28387 0.006,-2.13703 0.14052,-2.27186 0.20646,-0.20645 0.26735,0.16438 0.20329,1.23804 -0.0581,0.97316 -0.20153,1.40458 -0.34381,1.03382 z m 1.69354,-1.69908 c -0.20672,-0.20672 0.0263,-1.26289 0.24837,-1.12566 0.16088,0.0994 0.12424,1.19513 -0.04,1.19513 -0.0764,0 -0.1702,-0.0313 -0.20841,-0.0695 z m -2.50376,-1.67012 c -0.0367,-0.0366 -0.0666,-0.27422 -0.0666,-0.52795 0,-0.3671 0.0408,-0.47198 0.19988,-0.51358 0.10993,-0.0287 0.25703,-0.19024 0.32688,-0.35889 0.17758,-0.42871 0.34548,-0.31949 0.4351,0.28304 0.0658,0.44225 0.0473,0.53659 -0.1353,0.68949 -0.11633,0.0974 -0.27956,0.15102 -0.36273,0.1191 -0.092,-0.0353 -0.15121,0.005 -0.15121,0.10328 0,0.18333 -0.1461,0.30539 -0.24598,0.20551 z m 4.3454395,-5.71687 c -0.1834,-0.47792 0.4077,-2.23462 0.75191,-2.23462 0.21138,0 0.15975,0.35946 -0.22792,1.58664 -0.25002,0.79146 -0.39848,0.97505 -0.52399,0.64798 z m -2.8099595,-0.66542 c 0.0985,-0.61584 0.26388,-0.99534 0.38223,-0.87699 0.15701,0.157 -0.1,1.28769 -0.29267,1.28769 -0.12236,0 -0.14133,-0.087 -0.0896,-0.4107 z m 2.0833795,-0.57759 c -0.0934,-0.24341 0.14573,-0.46905 0.27694,-0.2613 0.054,0.0855 0.0843,0.1994 0.0673,0.25313 -0.0562,0.1778 -0.27713,0.18305 -0.34424,0.008 z m 0.21467,-1.12995 c -0.0675,-0.17599 0.12614,-0.6953 0.25931,-0.6953 0.16865,0 0.21942,0.17096 0.15155,0.51032 -0.0655,0.3273 -0.31341,0.43893 -0.41086,0.18498 z m 116.945897,-2.62468 c -0.21687,-0.45478 -0.22467,-0.67574 -0.0239,-0.67574 0.18516,0 0.34261,0.27332 0.38734,0.67235 0.0483,0.43046 -0.15887,0.4324 -0.36345,0.003 z M 9.6804735,210.19439 c -0.0793,-0.20781 -0.074,-0.39394 0.0193,-0.67733 0.15886,-0.48275 0.4387695,-0.53578 0.3903195,-0.0739 -0.0203,0.1933 0.0251,0.35291 0.11648,0.40936 0.12111,0.0748 0.12638,0.14373 0.0276,0.3605 -0.15951,0.35008 -0.4162995,0.34146 -0.5536695,-0.0186 z M 126.50079,209.79334 c -0.15946,-0.41941 -0.16968,-0.69003 -0.028,-0.74046 0.0741,-0.0264 0.17336,0.13745 0.24549,0.40534 0.14457,0.53686 0.14458,0.53862 0.003,0.58573 -0.0613,0.0204 -0.16061,-0.0924 -0.22078,-0.25061 z M 10.352293,208.44535 c -0.0338,-0.088 -0.002,-0.37101 0.07,-0.62902 0.12286,-0.43882 0.11602,-0.48542 -0.10601,-0.72175 -0.20876,-0.22222 -0.22235,-0.28764 -0.1128,-0.54329 0.1847,-0.43104 0.90408,-1.2147 1.03869,-1.13151 0.0637,0.0394 0.11796,0.17437 0.1205,0.29994 0.004,0.18153 0.0479,0.14626 0.21585,-0.17211 0.11619,-0.22024 0.18647,-0.46501 0.15618,-0.54394 -0.0618,-0.16095 0.31697,-1.08763 0.44451,-1.08763 0.1859,0 0.20431,0.15062 0.0605,0.49488 -0.0837,0.20031 -0.15234,0.48743 -0.15255,0.63804 -2.1e-4,0.15062 -0.13485,0.62554 -0.2992,1.05538 -0.91588,2.3954 -0.96532,2.50092 -1.17169,2.50092 -0.11141,0 -0.23017,-0.072 -0.26392,-0.15991 z m 1.83939,-0.34496 c 0,-0.29549 0.27136,-0.64138 0.50318,-0.64138 0.16821,0 0.15277,0.26355 -0.0369,0.6304 -0.20671,0.39973 -0.46625,0.40583 -0.46625,0.011 z m -0.44457,-1.22489 c -0.0786,-0.0786 0.74777,-1.709 0.86616,-1.709 0.18652,0 0.17604,0.17827 -0.0403,0.68522 -0.37506,0.87895 -0.64102,1.20865 -0.82589,1.02378 z m 1.01326,-0.43249 c 0.0386,-0.15761 0.13751,-0.35523 0.2197,-0.43915 0.1306,-0.13333 0.14946,-0.11797 0.14946,0.12173 0,0.38813 -0.10113,0.60398 -0.28296,0.60398 -0.11824,0 -0.1393,-0.07 -0.0862,-0.28656 z m 1.93223,-0.54508 c 0,-0.24412 0.35571,-0.99398 0.51954,-1.09523 0.17761,-0.10977 0.11804,0.34789 -0.10123,0.7777 -0.24877,0.48764 -0.41831,0.61633 -0.41831,0.31753 z m -2.11019,-2.25113 c -0.0764,-0.0764 0.45017,-1.18964 0.56267,-1.18964 0.2008,0 0.18865,0.2613 -0.0327,0.70317 -0.23678,0.47269 -0.39683,0.6196 -0.52997,0.48647 z m 0.75553,-0.0897 c 0,-0.25913 1.01957,-2.5235 1.42196,-3.15802 0.26389,-0.41613 0.4079,-0.54708 0.60164,-0.54708 0.16408,0 0.33393,-0.11124 0.47732,-0.31261 0.2471,-0.34703 0.41682,-0.40363 0.41682,-0.139 0,0.31875 -0.93654,1.70207 -1.15235,1.70207 -0.22575,0 -0.4897,0.38576 -1.09035,1.59355 -0.42667,0.85795 -0.67504,1.17478 -0.67504,0.86109 z m 0.52102,-2.44062 c 0,-0.50393 0.59224,-1.3322 0.80234,-1.1221 0.0988,0.0988 -0.27867,0.86087 -0.55507,1.12053 l -0.24727,0.23229 z m 1.40866,-2.40767 c -0.1094,-0.17702 0.43954,-1.04511 0.66088,-1.04511 0.16899,0 0.1526,0.0659 -0.15831,0.63718 -0.27732,0.50953 -0.3855,0.59734 -0.50257,0.40793 z m 1.09226,-0.63038 c 0,-0.15482 0.57965,-1.25266 0.82419,-1.56099 0.15744,-0.19852 0.23562,-0.23161 0.3285,-0.13904 0.093,0.0927 0.082,0.1784 -0.0465,0.36185 -0.0926,0.13221 -0.16836,0.34718 -0.16836,0.47771 0,0.13053 -0.0469,0.23732 -0.10421,0.23732 -0.0573,0 -0.1042,0.0502 -0.1042,0.11165 0,0.13138 -0.17832,0.30591 -0.49901,0.48842 -0.14426,0.0821 -0.23043,0.0907 -0.23043,0.0231 z m 5.62708,-1.06359 c 0,-0.18996 0.18474,-0.3474 0.2873,-0.24484 0.0358,0.0358 -0.0143,0.14429 -0.11114,0.24117 -0.16245,0.16245 -0.17616,0.16274 -0.17616,0.004 z m 0.62523,-0.89881 c 0,-0.14658 0.45908,-0.77765 0.59918,-0.82365 0.19479,-0.064 0.15807,0.12495 -0.1042,0.53609 -0.21536,0.33757 -0.49498,0.50002 -0.49498,0.28756 z m 0.83364,-0.9926 c 0,-0.0216 0.0703,-0.0977 0.15631,-0.16907 0.12802,-0.10624 0.15631,-0.0991 0.15631,0.0393 0,0.093 -0.0703,0.16907 -0.15631,0.16907 -0.086,0 -0.15631,-0.0177 -0.15631,-0.0393 z m 0.20841,-0.51764 c 0,-0.20218 0.38243,-0.51863 0.5223,-0.43218 0.0809,0.05 0.044,0.15267 -0.1158,0.32282 -0.26274,0.27967 -0.4065,0.31835 -0.4065,0.10936 z m 0.97886,-0.84112 c -0.0862,-0.22476 0.0338,-0.50477 0.19351,-0.45152 0.0716,0.0239 0.1302,0.15282 0.1302,0.28655 0,0.2856 -0.23204,0.40386 -0.32371,0.16497 z m -2.45096,-0.45154 c 0.17062,-0.31652 0.61794,-0.67626 0.74401,-0.59835 0.0814,0.0503 0.009,0.19014 -0.22114,0.42774 -0.37094,0.38271 -0.69404,0.48814 -0.52287,0.17061 z m 1.89262,-0.72943 c 0.0143,-0.30279 1.1879,-1.63781 1.3511,-1.53695 0.11501,0.0711 -0.18317,0.52847 -0.80454,1.23411 -0.31084,0.35301 -0.55533,0.48847 -0.54656,0.30284 z m -2.50462,-0.66222 c 0,-0.21059 1.3872,-1.97515 2.03263,-2.58557 0.39919,-0.37754 0.62193,-0.5219 0.69404,-0.44979 0.16315,0.16315 0.005,0.38413 -1.2876,1.79541 -1.15487,1.26123 -1.43907,1.5061 -1.43907,1.23995 z m -0.89323,-0.64833 c -0.0811,-0.21125 0.23552,-0.79961 0.43025,-0.79961 0.25643,0 0.2977,0.30935 0.0801,0.60075 -0.24906,0.33359 -0.43142,0.40464 -0.51039,0.19886 z m 1.11498,-1.41329 c 0.70167,-0.96619 1.65394,-1.89856 1.65394,-1.61937 0,0.0689 -0.73497,0.98198 -1.18929,1.47756 -0.34706,0.37859 -0.71905,0.49212 -0.46465,0.14181 z m 5.13039,-0.16786 c -0.0908,-0.23669 0.0309,-0.45717 0.32694,-0.59204 0.20265,-0.0923 0.2953,-0.0923 0.3878,2.1e-4 0.0926,0.0926 0.05,0.19619 -0.17863,0.43483 -0.33685,0.3516 -0.44884,0.38439 -0.53611,0.157 z m -5.08358,-0.97693 c -0.0822,-0.13302 0.53882,-0.95086 0.72204,-0.95086 0.23737,0 0.18795,0.18975 -0.16572,0.63629 -0.32394,0.40901 -0.45289,0.48192 -0.55632,0.31457 z m 3.54141,-0.10672 c -0.0319,-0.0515 0.1155,-0.24597 0.32744,-0.43206 0.4665,-0.40958 0.61167,-0.23 0.17908,0.22152 -0.30713,0.32058 -0.41165,0.36403 -0.50652,0.21054 z m -0.31337,-0.55758 c 0.0913,-0.29793 0.24827,-0.49497 0.39422,-0.49497 0.0627,0 0.33719,-0.21991 0.61007,-0.48869 0.27288,-0.26878 0.52821,-0.45664 0.56739,-0.41746 0.0392,0.0392 -0.0162,0.16783 -0.12304,0.28589 -0.10684,0.11806 -0.19643,0.34109 -0.19908,0.49561 -0.004,0.24635 -0.0512,0.28483 -0.38088,0.31242 -0.27359,0.0229 -0.41327,0.10098 -0.51259,0.28656 -0.1777,0.33205 -0.45651,0.3482 -0.35609,0.0206 z m 1.60945,-0.2677 c 0,-0.16602 1.86856,-1.91126 1.97553,-1.84515 0.26398,0.16315 0.0521,0.47922 -0.77038,1.14896 -0.87062,0.70897 -1.20515,0.90222 -1.20515,0.69619 z m 2.11849,-0.10703 c -0.0449,-0.17162 -0.11907,-0.22661 -0.25704,-0.19053 -0.10668,0.0279 -0.2176,0.0125 -0.2465,-0.0343 -0.11091,-0.17944 0.0956,-0.42767 0.69775,-0.83869 0.62183,-0.42445 0.89938,-0.48158 0.56967,-0.11726 -0.21438,0.23689 -0.21914,0.3311 -0.0167,0.3311 0.27045,0 0.17133,0.25565 -0.26388,0.68062 -0.41061,0.40095 -0.42162,0.4048 -0.48327,0.16906 z m -3.51658,-1.46087 c -0.064,-0.10362 1.9065,-2.05001 2.73606,-2.70252 0.52574,-0.41352 0.85034,-0.54693 0.85034,-0.34948 0,0.14449 -3.30734,3.14217 -3.46676,3.14217 -0.0352,0 -0.089,-0.0406 -0.11964,-0.0902 z m 2.20391,-0.285 c -0.15052,-0.15053 1.08454,-1.50053 1.37277,-1.50053 0.13729,0 0.35051,0.49535 0.26958,0.62629 -0.0903,0.14611 -1.31645,0.93679 -1.45273,0.93679 -0.0699,0 -0.15521,-0.0282 -0.18962,-0.0625 z m -0.389,-0.53093 c 0,-0.13155 0.5573,-0.65698 0.69683,-0.65698 0.21293,0 0.16301,0.14432 -0.15545,0.44943 -0.27657,0.26497 -0.54138,0.36649 -0.54138,0.20755 z m 2.39672,-1.35228 c 0,-0.198 1.35644,-1.59721 1.54838,-1.59721 0.19262,0 0.26335,0.2977 0.13676,0.57555 -0.12196,0.26767 -1.3248,1.19593 -1.54968,1.19593 -0.0745,0 -0.13546,-0.0784 -0.13546,-0.17427 z m 0.35995,-1.81334 c -0.0706,-0.11417 0.33301,-0.61751 0.49513,-0.61751 0.18729,0 0.20432,0.32913 0.0272,0.5249 -0.20491,0.22642 -0.41641,0.26392 -0.52229,0.0926 z m 2.662,-2.06716 c 0,-0.18726 2.56346,-1.99991 3.04396,-2.15242 0.3011,-0.0956 0.54333,0.18096 0.45762,0.52243 -0.0874,0.34828 -0.57917,0.64635 -1.31064,0.79441 -0.31667,0.0641 -0.8964,0.2997 -1.2883,0.52356 -0.73194,0.41808 -0.90264,0.47709 -0.90264,0.31202 z m 4.73351,-2.83542 c -0.0906,-0.14655 0.43666,-0.6433 0.61846,-0.5827 0.22173,0.0739 0.12007,0.32242 -0.21099,0.51577 -0.24705,0.14429 -0.34929,0.16108 -0.40747,0.0669 z m 1.31039,-0.45587 c 0,-0.26754 0.20005,-0.57353 0.37498,-0.57353 0.11689,0 0.15056,0.0901 0.12659,0.33867 -0.025,0.25957 -0.0874,0.34645 -0.26711,0.37197 -0.16114,0.0229 -0.23446,-0.02 -0.23446,-0.13711 z m 1.58617,-1.64163 c 0.0467,-0.15038 1.34942,-0.86009 1.77444,-0.96671 0.21499,-0.0539 0.28656,-0.0337 0.28656,0.0809 0,0.0911 -0.38019,0.32693 -0.9423,0.58443 -1.00401,0.45993 -1.18292,0.50814 -1.1187,0.30141 z m 52.142989,-0.33866 c -0.18793,-0.0573 -0.47839,-0.20744 -0.64548,-0.33361 l -0.30379,-0.2294 0.28091,0.021 c 0.46428,0.0347 0.35205,-0.16183 -0.28416,-0.49757 -0.57785,-0.30494 -0.88943,-0.6034 -0.76246,-0.73036 0.0333,-0.0333 0.26228,-0.0283 0.50884,0.0111 0.46171,0.0738 1.24682,0.65786 1.24682,0.92748 0,0.0739 0.3048,0.27699 0.67734,0.45132 0.37253,0.17433 0.67733,0.36168 0.67733,0.41633 0,0.12594 -0.94388,0.10138 -1.39535,-0.0363 z m -49.287209,-0.85514 c -0.14503,-0.14503 -0.0373,-0.25016 0.57075,-0.55711 0.58592,-0.29577 0.92699,-0.3404 0.92699,-0.1213 0,0.15113 -1.39373,0.78242 -1.49774,0.67841 z m 46.227789,-0.5251 c -0.34807,-0.17323 -0.41378,-0.28043 -0.23834,-0.38886 0.0941,-0.0582 0.94172,0.40978 0.94172,0.51994 0,0.10256 -0.37395,0.0329 -0.70338,-0.13108 z"
       style="fill:#000000;stroke-width:0.10420512" />
  </g>
</svg>
